<?xml version="1.0" encoding="UTF-8" standalone="no"?>
<!-- Created with Inkscape (http://www.inkscape.org/) -->

<svg
   width="210mm"
   height="297mm"
   viewBox="0 0 210 297"
   version="1.1"
   id="svg5019"
   sodipodi:docname="bottom-tube.svg"
   inkscape:version="1.1.2 (1:1.1+202202050852+0a00cf5339)"
   xmlns:inkscape="http://www.inkscape.org/namespaces/inkscape"
   xmlns:sodipodi="http://sodipodi.sourceforge.net/DTD/sodipodi-0.dtd"
   xmlns="http://www.w3.org/2000/svg"
   xmlns:svg="http://www.w3.org/2000/svg">
  <sodipodi:namedview
     id="namedview5021"
     pagecolor="#ffffff"
     bordercolor="#666666"
     borderopacity="1.0"
     inkscape:pageshadow="2"
     inkscape:pageopacity="0.0"
     inkscape:pagecheckerboard="0"
     inkscape:document-units="mm"
     showgrid="false"
     inkscape:zoom="0.11959701"
     inkscape:cx="376.26358"
     inkscape:cy="1237.4891"
     inkscape:window-width="1129"
     inkscape:window-height="703"
     inkscape:window-x="0"
     inkscape:window-y="0"
     inkscape:window-maximized="0"
     inkscape:current-layer="svg5019" />
  <defs
     id="defs5016" />
  <g
     inkscape:label="Layer 1"
     inkscape:groupmode="layer"
     id="layer1" />
  <g
     transform="matrix(0.10512484,0,0,-0.10580011,0,559.99998)"
     fill="#000000"
     stroke="none"
     id="g5388">
    <path
       d="m 0,5244 1,-49 32,38 c 37,43 53,46 69,13 16,-37 5,-52 -51,-71 L 0,5158 v -49 -48 l 36,24 c 42,29 67,31 117,10 20,-8 52,-15 71,-15 39,0 53,-14 36,-35 -18,-21 -73,-18 -132,7 -58,25 -81,18 -86,-26 -3,-22 2,-29 34,-42 52,-22 172,-30 217,-15 38,13 40,16 41,66 1,27 4,30 36,30 29,0 36,-4 38,-22 2,-16 -4,-26 -22,-34 -14,-7 -28,-20 -32,-31 -6,-21 39,-126 58,-133 7,-2 31,-9 53,-14 29,-8 47,-21 65,-48 24,-35 25,-45 28,-198 4,-184 -2,-207 -64,-245 -35,-22 -38,-23 -156,-10 -66,7 -146,9 -179,6 -58,-7 -58,-7 -75,25 l -16,32 123,-8 c 227,-15 275,-13 301,13 22,21 23,30 23,172 0,175 -7,192 -95,224 -46,17 -55,25 -73,65 -11,25 -25,49 -31,53 -6,4 -64,8 -129,8 -125,0 -120,-2 -167,60 l -19,25 -1,-94 v -93 l 25,16 c 20,13 45,15 137,12 62,-3 113,-5 114,-5 1,-1 9,-19 19,-42 18,-38 57,-69 88,-69 8,0 24,-8 36,-17 18,-16 21,-32 25,-130 6,-138 0,-148 -78,-139 -28,3 -94,9 -146,12 -98,6 -123,15 -113,39 11,29 37,28 254,-11 37,-6 69,12 69,41 0,21 -26,31 -121,44 -47,7 -90,16 -96,19 -7,4 -13,25 -15,47 -3,39 -4,40 -45,43 -52,4 -76,28 -48,48 12,9 31,12 50,9 29,-6 43,-19 92,-83 17,-22 36,-32 83,-42 55,-12 62,-11 80,5 11,10 20,22 20,26 0,18 -34,39 -61,39 -43,0 -66,15 -88,59 -25,49 -66,66 -154,66 -88,0 -107,-19 -107,-104 0,-65 11,-81 55,-81 16,0 36,-4 44,-9 19,-12 4,-31 -25,-31 -50,0 -64,-16 -64,-73 0,-29 7,-65 15,-81 9,-16 14,-30 13,-30 -2,-1 -15,-7 -31,-14 -34,-14 -34,-35 -1,-75 21,-25 24,-36 19,-68 -5,-28 -2,-46 11,-68 16,-26 16,-37 5,-98 -7,-40 -9,-91 -5,-121 7,-52 6,-52 -25,-63 -27,-9 -31,-16 -31,-46 0,-35 1,-35 32,-29 18,3 48,14 68,24 l 35,17 -3,100 c -5,121 5,151 55,172 31,13 57,14 143,8 58,-5 131,-9 163,-9 54,-1 61,-4 86,-35 26,-31 31,-34 70,-28 34,4 43,2 51,-14 8,-13 7,-25 0,-39 -13,-24 -26,-22 -110,20 -71,36 -113,46 -233,59 -151,17 -195,-10 -182,-113 17,-132 6,-176 -42,-176 -13,0 -40,-7 -60,-15 C 1,3755 3,3760 2,3547 l -1,-191 46,103 c 49,108 50,120 18,202 -10,27 26,59 75,65 58,8 93,-18 126,-92 20,-47 28,-54 63,-64 25,-7 42,-18 46,-31 7,-21 123,-195 161,-242 13,-15 26,-44 29,-65 4,-20 9,-45 12,-55 10,-37 99,-60 143,-37 31,17 40,67 39,229 l -1,156 -24,-52 c -13,-29 -28,-53 -32,-53 -5,0 -21,9 -35,20 -35,28 -65,26 -77,-5 -14,-37 -3,-53 48,-67 l 47,-14 3,-59 c 1,-33 -2,-66 -7,-74 -16,-24 -38,-4 -45,40 -4,26 -20,59 -39,84 -48,59 -122,165 -141,202 -15,30 -15,37 -2,80 8,27 16,57 18,68 2,12 11,20 23,20 17,0 20,-6 17,-35 -7,-96 -6,-138 7,-168 17,-40 53,-52 81,-27 18,17 21,17 38,2 15,-13 22,-14 42,-4 24,12 25,16 30,157 5,138 6,145 28,155 17,8 22,18 22,48 0,32 -3,38 -16,33 -46,-18 -63,-16 -118,13 -39,21 -72,31 -102,31 -31,0 -56,8 -84,26 -35,23 -46,26 -92,20 -96,-13 -102,-12 -106,7 -2,10 2,25 9,34 27,32 226,0 331,-53 64,-32 133,-47 158,-34 19,10 20,22 20,161 0,112 -4,157 -15,178 -12,24 -13,44 -4,117 6,49 10,163 10,254 -1,91 1,245 4,343 5,173 4,177 -14,167 -67,-35 -81,-120 -31,-186 16,-21 30,-47 30,-56 0,-29 -38,-22 -54,10 -8,15 -26,37 -40,49 -22,19 -24,26 -15,55 5,18 9,47 9,64 0,31 23,59 88,103 28,20 32,28 32,67 0,24 -2,44 -5,44 -7,0 -126,-91 -147,-112 -26,-26 -42,-22 -76,16 -61,69 -72,72 -424,93 l -108,6 z m 348,-53 92,-6 38,-41 c 20,-23 47,-44 60,-48 31,-10 31,-74 -2,-113 -12,-15 -29,-38 -35,-51 -18,-33 -55,-26 -59,11 -3,23 2,29 28,38 62,22 58,60 -15,128 -46,42 -49,43 -97,38 -43,-5 -127,4 -180,19 -21,6 -24,30 -5,38 6,3 28,2 47,-1 19,-3 77,-8 128,-12 z m 280,-330 39,-50 7,-138 c 7,-147 -6,-347 -24,-368 -6,-7 -22,-16 -35,-19 -13,-3 -34,-21 -46,-39 -13,-17 -28,-35 -34,-39 -15,-11 -83,-10 -191,4 -84,10 -102,9 -151,-6 -61,-19 -77,-14 -71,25 3,23 6,24 103,27 55,2 127,-2 160,-7 78,-14 119,-2 177,49 67,59 70,71 66,288 -3,180 -4,192 -26,219 -33,41 -45,70 -39,87 10,26 23,19 65,-33 z m 68,-678 c 8,-44 -6,-60 -42,-47 -15,5 -32,17 -38,27 -9,15 -6,22 17,42 34,30 55,23 63,-22 z M 415,3869 c 32,-28 41,-31 78,-26 33,5 55,1 94,-17 l 50,-24 v -126 c 1,-144 -11,-180 -42,-132 -14,21 -16,36 -10,74 12,69 8,131 -11,159 -14,22 -21,25 -53,20 -20,-3 -45,-9 -56,-12 -15,-4 -34,4 -65,29 -48,38 -80,45 -100,21 -21,-25 -4,-62 35,-75 47,-15 67,-46 56,-85 -11,-45 -41,-39 -66,12 -11,24 -35,55 -54,71 -33,27 -33,29 -22,65 14,41 21,47 71,63 52,17 56,17 95,-17 z"
       id="path5358" />
    <path
       d="m 519,5272 c 17,-32 49,-54 68,-48 10,4 34,20 53,36 l 34,30 h -82 c -76,0 -82,-1 -73,-18 z"
       id="path5360" />
    <path
       d="m 3,4080 c -1,-102 2,-133 7,-103 5,23 5,88 1,145 l -8,103 z"
       id="path5362" />
    <path
       d="m 753,3675 c 0,-27 2,-38 4,-22 2,15 2,37 0,50 -2,12 -4,0 -4,-28 z"
       id="path5364" />
    <path
       d="m 122,3688 c -19,-19 -14,-48 13,-80 31,-37 31,-49 1,-77 -31,-29 -62,-102 -71,-166 -4,-27 -16,-90 -27,-139 -20,-86 -20,-93 -4,-160 9,-39 26,-120 37,-181 25,-130 33,-152 65,-186 l 24,-26 -20,-18 c -30,-27 -25,-49 22,-104 24,-27 51,-61 61,-75 19,-27 51,-38 166,-55 65,-10 78,-9 105,6 18,10 56,32 86,48 72,39 117,87 130,135 9,33 6,56 -15,140 -14,55 -35,120 -46,143 -20,40 -20,45 -6,80 9,20 23,37 31,37 18,0 18,0 20,-60 1,-25 15,-92 32,-150 l 29,-104 3,173 c 3,193 -2,214 -58,226 -50,11 -102,-21 -120,-74 -16,-48 -32,-60 -56,-41 -13,11 -12,16 3,39 46,70 47,78 20,134 -14,29 -35,74 -47,102 -12,27 -41,77 -66,110 -25,33 -59,82 -77,110 -20,31 -47,58 -72,70 -30,16 -48,36 -71,79 -40,74 -65,91 -92,64 z m 141,-218 c 14,-11 39,-44 56,-73 17,-30 40,-62 52,-73 26,-23 109,-196 109,-228 0,-26 -36,-69 -53,-63 -8,3 -11,23 -9,54 2,41 -5,66 -38,136 -34,71 -46,88 -68,93 -44,11 -50,21 -44,70 3,33 1,49 -9,55 -40,25 -69,-6 -69,-73 0,-29 -11,-80 -25,-120 -14,-38 -25,-73 -25,-78 0,-5 12,-22 26,-39 25,-30 25,-33 10,-56 -20,-30 -20,-74 -1,-99 10,-13 15,-43 15,-82 0,-57 3,-64 30,-87 40,-34 85,-43 113,-23 73,53 65,50 102,33 53,-25 91,-99 74,-143 -8,-23 -92,-67 -118,-62 -29,6 -18,42 19,60 50,25 72,55 60,79 -15,28 -61,24 -91,-7 -19,-20 -30,-24 -54,-19 -16,3 -52,9 -79,14 -78,13 -77,10 -132,314 -16,92 -16,103 -1,170 9,40 19,92 22,117 4,25 18,69 31,98 29,59 53,67 97,32 z m 49,-280 c 38,-77 37,-132 -2,-172 -36,-35 -64,-34 -68,4 -2,20 4,30 27,44 17,10 34,27 37,37 6,20 -12,47 -32,47 -8,0 -23,9 -34,20 -16,16 -18,24 -8,50 16,48 47,37 80,-30 z m 147,-255 c 21,-19 48,-35 60,-35 44,0 60,-19 86,-103 39,-121 42,-166 15,-200 -12,-15 -41,-37 -63,-49 -23,-11 -53,-29 -66,-40 -21,-16 -35,-18 -95,-12 -39,4 -80,10 -91,14 -11,4 -44,43 -74,85 l -53,78 46,-5 c 62,-7 78,-22 70,-64 -10,-53 5,-62 94,-60 71,2 82,5 134,39 64,42 74,62 64,134 -10,75 -43,122 -111,160 -74,41 -98,41 -142,3 -38,-34 -46,-36 -63,-15 -18,22 -8,47 25,58 17,5 41,18 55,28 37,27 65,23 109,-16 z"
       id="path5366" />
    <path
       d="m 3,2741 v -274 l 34,54 c 53,84 58,114 35,184 -34,100 -55,187 -62,250 -4,33 -7,-63 -7,-214 z"
       id="path5368" />
    <path
       d="m 725,2545 c -17,-28 -35,-59 -41,-70 -7,-13 -25,-22 -52,-26 -26,-3 -56,-18 -85,-42 -72,-59 -88,-63 -146,-38 -27,11 -67,21 -88,21 -23,0 -62,12 -100,32 l -62,32 2,45 c 2,45 1,46 -28,46 -27,0 -33,-7 -68,-75 -41,-82 -42,-99 -17,-250 17,-96 16,-112 -4,-247 -9,-62 -15,-154 -15,-205 1,-79 6,-103 29,-158 26,-59 28,-69 17,-113 -8,-36 -8,-63 1,-106 15,-71 15,-131 1,-168 -6,-15 -15,-57 -19,-93 -5,-36 -12,-79 -16,-97 -5,-25 -2,-33 15,-42 15,-8 27,-9 40,-1 34,18 73,11 138,-25 35,-19 75,-35 89,-35 24,0 125,50 187,93 l 29,20 71,-37 c 94,-47 128,-92 127,-168 -2,-291 1,-360 15,-386 13,-24 14,2 11,258 -5,342 -5,259 0,603 l 5,287 h -25 c -25,0 -25,0 -11,41 18,50 19,98 4,150 -10,31 -9,49 6,101 26,92 33,304 12,345 -18,33 -15,135 4,203 6,19 9,62 7,95 l -3,60 z M 155,2370 c 13,-21 71,-43 136,-51 37,-4 82,-17 101,-29 56,-34 99,-23 184,46 44,37 78,43 88,18 7,-19 -10,-54 -27,-55 -7,-1 -25,0 -40,1 -35,2 -57,-15 -57,-45 0,-37 24,-50 69,-36 48,14 47,14 65,-5 9,-9 16,-32 16,-54 v -39 l -79,44 c -90,50 -136,64 -171,54 -41,-12 -45,-10 -84,27 -34,33 -39,35 -81,28 -39,-5 -48,-3 -76,20 -22,19 -37,24 -55,20 -30,-8 -54,11 -54,40 0,43 42,53 65,16 z m 13,-142 c 15,-15 16,-121 1,-168 -15,-50 -21,-354 -8,-404 11,-39 36,-68 131,-151 l 35,-30 3,-125 c 1,-69 3,-143 4,-165 1,-36 -2,-40 -25,-43 -42,-5 -54,20 -34,70 17,43 16,67 -7,213 -6,39 -15,78 -20,88 -12,23 -41,22 -63,-3 -16,-18 -16,-22 -2,-58 8,-21 18,-74 22,-118 6,-69 4,-85 -15,-128 -26,-58 -18,-86 31,-112 54,-27 85,-33 129,-22 68,17 72,32 60,199 -11,142 -11,144 10,161 13,11 39,18 62,18 h 40 l -36,-40 -36,-40 6,-103 c 3,-56 10,-115 14,-130 5,-15 7,-33 4,-40 -6,-16 -138,-87 -161,-87 -10,0 -40,14 -68,30 -27,16 -60,30 -72,30 -60,0 -63,12 -31,137 21,84 21,89 5,165 -12,55 -14,86 -7,104 17,43 11,102 -14,152 -30,58 -36,188 -17,327 21,159 23,190 14,225 -6,19 -8,41 -6,48 6,15 35,16 51,0 z m 158,-64 c 30,-33 36,-35 71,-27 68,14 100,8 163,-31 52,-32 67,-37 97,-31 l 35,6 -7,-47 c -11,-75 -12,-75 -70,-18 -57,55 -99,74 -170,74 -22,0 -58,5 -80,10 -62,14 -81,-3 -88,-85 -5,-55 -3,-74 13,-104 18,-37 18,-38 -1,-67 -23,-36 -26,-122 -4,-164 9,-16 30,-37 48,-46 17,-9 49,-35 69,-56 41,-44 58,-45 72,-5 13,35 -13,72 -75,108 -55,31 -68,63 -48,116 11,28 26,44 61,63 l 46,24 37,-33 c 42,-37 74,-51 114,-51 38,0 54,-22 54,-76 0,-51 -27,-97 -62,-102 -32,-5 -29,42 4,64 29,19 33,59 8,72 -10,5 -31,8 -48,5 -22,-3 -42,4 -75,26 -53,36 -74,38 -94,10 -23,-33 -6,-62 45,-79 66,-22 69,-26 63,-73 -5,-37 -2,-46 25,-74 37,-41 81,-44 133,-8 20,14 39,25 42,25 11,0 6,-66 -6,-78 -7,-7 -28,-12 -48,-12 -19,0 -48,-9 -65,-20 -42,-28 -50,-25 -50,17 0,35 -2,38 -32,41 -18,2 -43,-4 -55,-12 -34,-24 -62,-20 -81,13 -9,16 -39,43 -66,60 -60,39 -77,75 -74,161 1,36 2,103 2,150 1,47 8,117 17,157 9,40 13,77 9,83 -10,16 5,50 22,50 9,0 31,-16 49,-36 z m 153,-153 c 32,-7 53,-19 81,-50 42,-46 46,-47 78,-25 20,14 23,14 28,0 8,-21 -22,-66 -44,-66 -26,0 -109,55 -123,82 -24,46 -40,48 -76,8 -29,-33 -57,-39 -67,-14 -8,21 -8,59 1,67 9,9 68,8 122,-2 z m 221,-601 c 13,-23 17,-156 6,-188 -5,-16 -14,-22 -29,-20 -19,3 -22,9 -21,43 0,22 7,54 14,72 17,39 2,63 -41,63 -31,0 -29,4 -49,-101 -15,-76 2,-130 45,-142 50,-15 60,-23 63,-51 2,-18 -1,-26 -11,-26 -20,0 -114,49 -128,66 -13,16 -25,180 -16,216 4,13 19,31 34,38 16,8 39,22 52,32 31,24 68,23 81,-2 z"
       id="path5370" />
    <path
       d="m 3,2125 c 0,-33 2,-45 4,-27 2,18 2,45 0,60 -2,15 -4,0 -4,-33 z"
       id="path5372" />
    <path
       d="m 0,1544 c 0,-48 2,-55 14,-45 21,18 30,69 16,86 -22,27 -30,16 -30,-41 z"
       id="path5374" />
    <path
       d="m 0,1310 c 0,-107 2,-131 13,-121 16,16 17,208 0,236 -10,16 -12,-4 -13,-115 z"
       id="path5376" />
    <path
       d="m 1,1084 c 0,-11 3,-14 6,-6 3,7 2,16 -1,19 -3,4 -6,-2 -5,-13 z"
       id="path5378" />
    <path
       d="M 483,960 C 459,950 419,925 394,906 336,861 308,861 247,904 191,944 121,964 68,955 43,950 24,953 15,960 2,971 0,938 0,697 V 422 l 35,-31 c 22,-19 47,-31 65,-31 43,0 107,56 155,135 37,61 46,70 71,70 23,0 35,-9 60,-47 44,-68 62,-86 94,-93 36,-8 169,38 193,66 22,27 23,122 2,174 -15,33 -15,41 1,81 20,53 15,125 -13,163 -20,27 -96,71 -123,71 -8,0 -34,-9 -57,-20 z m 111,-91 c 31,-37 32,-53 6,-104 -11,-22 -20,-50 -20,-62 0,-13 9,-40 20,-60 39,-72 26,-106 -47,-129 l -56,-18 -26,31 c -14,17 -35,46 -46,65 -29,47 -88,67 -141,47 -23,-9 -47,-28 -59,-47 -11,-17 -36,-56 -55,-87 -41,-65 -74,-80 -101,-46 -27,33 -34,87 -20,167 9,54 9,83 1,116 -6,24 -10,64 -8,88 l 3,45 51,3 c 44,3 57,-2 104,-34 101,-70 144,-68 246,7 80,59 111,63 148,18 z"
       id="path5380" />
    <path
       d="m 477,810 -45,-49 -105,-3 -106,-2 -50,47 c -55,52 -54,51 -82,37 -31,-17 -24,-54 16,-84 40,-31 42,-38 17,-74 -14,-21 -52,-134 -52,-156 0,-10 32,-36 45,-36 25,0 45,31 45,68 0,20 11,55 23,77 l 23,40 112,3 112,3 28,-45 c 15,-24 35,-58 44,-75 21,-38 54,-41 70,-6 10,21 7,31 -19,72 -65,105 -63,90 -15,132 42,37 52,67 30,89 -22,22 -46,12 -91,-38 z"
       id="path5382" />
    <path
       d="M 291,491 C 285,480 280,466 280,460 280,443 180,333 153,321 108,301 52,307 25,336 L 0,363 v -73 c 0,-59 2,-70 13,-61 7,6 38,10 68,9 85,-2 121,15 189,90 49,55 63,65 77,56 9,-5 20,-20 24,-32 8,-20 5,-22 -26,-22 -38,0 -55,-20 -55,-64 0,-20 -6,-27 -27,-31 -16,-3 -46,-15 -68,-25 C 171,198 134,190 103,190 75,190 40,186 26,180 4,172 0,164 0,129 0,94 2,89 17,95 99,130 133,126 157,79 176,41 200,30 260,30 291,30 361,23 416,15 470,7 550,0 592,0 h 77 l 46,45 c 38,39 45,52 45,85 v 39 L 726,149 C 707,138 670,107 643,79 617,52 590,30 584,30 c -16,0 -47,37 -42,51 2,7 20,18 39,24 21,7 43,26 58,48 21,31 30,37 61,37 53,0 60,13 60,105 0,76 -2,83 -28,108 -19,19 -39,27 -62,27 -45,0 -119,-28 -151,-57 -14,-12 -29,-23 -34,-23 -14,0 -98,91 -115,125 -19,37 -63,47 -79,16 z M 703,328 c 21,-25 19,-46 -5,-62 -14,-8 -23,-3 -52,29 -31,36 -33,41 -18,53 20,15 51,7 75,-20 z M 426,295 c 36,-37 30,-79 -12,-83 -39,-4 -60,18 -45,47 6,11 11,29 11,40 0,28 16,26 46,-4 z m 158,-36 c 8,-57 -3,-79 -40,-79 -31,0 -34,8 -21,60 23,88 51,97 61,19 z M 405,141 c 76,-13 112,-34 85,-52 -8,-5 -26,-7 -40,-4 -14,2 -61,7 -105,10 -106,8 -125,13 -125,30 0,36 40,39 185,16 z"
       id="path5384" />
    <path
       d="M 27,42 C 12,27 0,11 0,7 0,3 34,0 75,0 c 41,0 75,3 75,6 0,3 -9,19 -21,35 -27,38 -66,39 -102,1 z"
       id="path5386" />
  </g>
</svg>
