<?xml version="1.0" encoding="UTF-8" standalone="no"?>
<!-- Created with Inkscape (http://www.inkscape.org/) -->

<svg
   width="210mm"
   height="297mm"
   viewBox="0 0 210 297"
   version="1.1"
   id="svg109"
   sodipodi:docname="chain-guard.svg"
   inkscape:version="1.1.2 (1:1.1+202202050852+0a00cf5339)"
   xmlns:inkscape="http://www.inkscape.org/namespaces/inkscape"
   xmlns:sodipodi="http://sodipodi.sourceforge.net/DTD/sodipodi-0.dtd"
   xmlns="http://www.w3.org/2000/svg"
   xmlns:svg="http://www.w3.org/2000/svg">
  <sodipodi:namedview
     id="namedview111"
     pagecolor="#ffffff"
     bordercolor="#666666"
     borderopacity="1.0"
     inkscape:pageshadow="2"
     inkscape:pageopacity="0.0"
     inkscape:pagecheckerboard="0"
     inkscape:document-units="mm"
     showgrid="false"
     inkscape:zoom="0.23919402"
     inkscape:cx="395.07676"
     inkscape:cy="476.60054"
     inkscape:window-width="1366"
     inkscape:window-height="703"
     inkscape:window-x="0"
     inkscape:window-y="0"
     inkscape:window-maximized="1"
     inkscape:current-layer="svg109" />
  <defs
     id="defs106" />
  <g
     inkscape:label="Layer 1"
     inkscape:groupmode="layer"
     id="layer1" />
  <g
     transform="matrix(0.1061008,0,0,-0.10588235,0.1061008,359.99999)"
     fill="#000000"
     stroke="none"
     id="g558">
    <path
       d="M 21,3376 C 0,3354 -1,3345 3,3269 c 7,-109 7,-237 1,-426 l -5,-153 h 23 c 15,0 29,10 40,30 13,23 24,30 47,30 16,0 42,10 58,24 25,21 36,23 108,21 49,-1 95,-9 119,-20 30,-13 60,-16 119,-13 72,3 81,6 103,31 26,30 44,28 44,-4 0,-40 -19,-59 -57,-59 -20,0 -64,-5 -98,-11 -55,-9 -71,-8 -130,10 -89,28 -124,26 -203,-8 -37,-16 -80,-32 -97,-35 -37,-8 -69,-50 -66,-85 1,-14 2,-68 1,-120 0,-51 5,-111 10,-132 13,-49 67,-101 126,-124 36,-14 45,-21 42,-39 -2,-14 -11,-22 -30,-24 -20,-2 -30,4 -44,28 -22,36 -55,47 -90,31 -21,-9 -24,-17 -24,-62 0,-50 1,-51 18,-36 10,10 26,17 35,17 29,0 19,-36 -18,-64 C 2,2051 0,2045 0,1992 v -56 l 73,72 c 52,52 81,73 107,78 57,11 77,28 83,75 5,36 14,50 62,93 46,41 59,59 64,91 5,34 10,40 30,40 61,0 46,-77 -25,-125 -57,-40 -114,-134 -114,-189 0,-45 -2,-46 -48,-30 -46,16 -96,-16 -179,-113 -46,-53 -46,-67 -6,-105 25,-24 30,-48 11,-59 -6,-4 -21,5 -35,22 l -23,29 v -95 l 1,-95 22,27 c 37,45 78,55 222,52 72,-1 167,-5 211,-7 l 82,-6 51,-50 c 58,-59 93,-76 122,-61 31,17 36,81 14,186 -9,40 14,64 61,64 28,0 35,4 40,25 7,27 -9,55 -31,55 -8,0 -27,11 -43,25 -22,18 -32,37 -37,72 -8,55 -21,83 -64,137 -17,21 -31,46 -31,56 0,36 31,118 55,144 35,38 33,75 -4,89 l -30,11 34,37 c 44,49 55,92 42,158 -7,37 -7,59 2,77 6,14 11,49 11,78 0,48 -5,60 -56,132 -30,43 -76,98 -102,122 l -47,43 44,37 c 25,20 79,72 122,116 67,69 79,77 100,70 27,-10 65,-10 159,1 85,9 116,21 141,56 l 20,29 h -38 c -21,0 -87,-5 -148,-11 -82,-9 -110,-9 -113,0 -2,6 -19,11 -37,11 -26,0 -45,-11 -86,-50 -30,-27 -57,-50 -60,-50 -4,0 -9,13 -12,29 -8,39 -31,45 -84,21 -55,-24 -67,-25 -84,-4 -18,22 -113,14 -172,-15 -24,-12 -47,-21 -52,-21 -4,0 -30,20 -56,45 -40,37 -55,45 -87,45 -28,0 -45,-7 -61,-24 z m 102,-82 c 12,-14 34,-32 49,-40 15,-8 37,-32 48,-55 26,-51 74,-82 115,-74 46,9 127,63 157,105 21,30 36,40 70,47 24,5 45,5 47,0 5,-12 -27,-44 -76,-78 -23,-16 -48,-42 -55,-57 -10,-20 -22,-28 -48,-30 -19,-2 -39,-8 -44,-13 -6,-5 -26,-9 -46,-9 -43,0 -60,-14 -60,-51 0,-28 -39,-69 -66,-69 -23,0 -16,35 11,60 14,13 25,31 25,40 0,16 -75,126 -101,146 -8,7 -30,15 -49,19 -42,9 -60,22 -60,44 0,45 49,54 83,15 z m 286,-13 c 22,-14 5,-39 -43,-63 -37,-18 -47,-19 -60,-8 -29,23 -19,47 27,63 51,19 58,19 76,8 z M 134,3119 c 30,-36 32,-46 9,-71 -36,-39 -63,-15 -63,58 0,53 17,57 54,13 z m 364,-112 c 42,-24 114,-114 110,-136 -2,-10 -25,-21 -67,-30 -61,-14 -66,-14 -130,9 -41,15 -88,24 -125,25 -59,0 -88,18 -49,31 10,3 34,13 55,21 33,14 39,14 65,0 15,-9 59,-28 97,-43 l 70,-27 17,22 c 26,32 13,59 -35,72 -60,15 -126,41 -132,51 -3,5 -3,15 -1,23 8,19 82,8 125,-18 z m -370,-59 c 5,-7 13,-27 16,-44 8,-36 -23,-84 -55,-84 -16,0 -19,7 -19,54 0,30 3,61 6,70 7,19 38,21 52,4 z m 254,-298 c 40,-12 64,-12 145,-2 90,12 99,11 110,-5 7,-9 13,-27 13,-39 0,-46 -22,-73 -89,-108 -63,-33 -72,-35 -144,-31 -59,3 -84,9 -104,24 -43,35 -83,22 -83,-26 0,-16 9,-27 28,-34 49,-20 57,-26 60,-47 2,-15 -12,-37 -42,-69 l -45,-48 -55,27 c -69,34 -91,66 -91,134 0,29 3,56 7,59 4,4 24,11 45,15 21,5 64,17 96,29 l 57,21 57,-20 c 72,-25 122,-25 198,3 51,19 60,26 63,49 5,39 -28,54 -70,32 -60,-31 -96,-34 -162,-13 -83,26 -112,24 -198,-10 -63,-26 -75,-28 -87,-16 -19,19 0,41 42,51 18,3 48,15 67,25 40,22 106,21 182,-1 z m 248,-215 c 0,-3 -16,-34 -35,-71 -19,-36 -35,-76 -35,-89 0,-40 -19,-75 -46,-85 -32,-13 -110,-76 -118,-96 -9,-24 12,-54 39,-54 15,0 31,11 45,30 12,17 35,37 52,46 27,14 31,14 49,-2 28,-25 24,-44 -9,-44 -19,0 -38,-11 -58,-31 -28,-30 -31,-31 -93,-25 -36,3 -68,9 -73,14 -12,12 30,113 60,145 15,16 41,37 58,48 40,25 64,74 64,134 0,44 1,47 43,65 43,20 57,24 57,15 z m 10,-436 c 0,-20 -8,-33 -27,-46 -16,-9 -40,-28 -55,-41 -30,-28 -26,-28 -228,-13 -140,9 -156,9 -168,-6 -34,-46 -2,-66 101,-64 45,1 121,-3 169,-10 106,-14 127,-9 183,42 43,39 74,47 82,22 3,-7 -11,-22 -31,-34 -46,-27 -54,-53 -27,-89 11,-15 23,-40 27,-54 10,-41 -21,-33 -52,13 -14,22 -32,42 -40,45 -8,3 -103,8 -211,11 -109,4 -203,11 -209,16 -6,5 -19,27 -29,50 l -19,40 40,39 c 44,44 51,46 114,37 214,-29 226,-30 257,-14 33,17 93,81 93,99 0,7 5,6 15,-2 8,-7 15,-25 15,-41 z"
       id="path524" />
    <path
       d="m 127,2463 c -18,-17 -4,-58 35,-104 33,-39 47,-49 67,-47 43,5 39,45 -9,106 -39,49 -73,65 -93,45 z"
       id="path526" />
    <path
       d="m 227,3388 c 23,-8 46,-8 75,-1 41,10 40,11 -32,11 -66,0 -71,-1 -43,-10 z"
       id="path528" />
    <path
       d="m 435,3390 c 8,-13 45,-13 65,0 11,7 3,10 -28,10 -26,0 -41,-4 -37,-10 z"
       id="path530" />
    <path
       d="m 618,3389 c 21,-6 39,-6 50,0 13,8 5,10 -33,10 -48,-1 -49,-1 -17,-10 z"
       id="path532" />
    <path
       d="m 1107,3333 c -30,-34 -31,-68 -3,-99 l 25,-29 1,73 c 0,39 -2,72 -3,72 -2,0 -11,-8 -20,-17 z"
       id="path534" />
    <path
       d="m 905,3265 c -22,-7 -55,-11 -72,-8 -18,3 -44,3 -57,-1 -25,-6 -145,-123 -160,-156 -12,-26 49,-117 100,-152 18,-12 39,-37 44,-54 6,-17 10,-96 10,-175 0,-79 0,-154 1,-166 1,-12 -11,-37 -25,-56 -31,-41 -32,-56 -5,-91 22,-28 19,-39 -23,-74 -33,-28 -53,-88 -44,-134 3,-19 22,-53 41,-75 27,-32 35,-50 35,-79 0,-35 7,-45 66,-100 55,-52 65,-66 62,-90 -2,-23 -9,-30 -38,-35 -58,-12 -86,-80 -56,-137 29,-57 22,-77 -46,-127 -34,-25 -70,-45 -79,-45 -10,0 -26,15 -38,33 -11,17 -35,47 -54,65 -38,37 -50,39 -302,47 -146,5 -168,0 -225,-47 -33,-28 -40,-39 -40,-71 0,-35 2,-38 23,-31 12,4 39,22 60,40 35,32 41,34 120,36 161,5 178,3 193,-17 8,-10 14,-32 14,-47 0,-19 13,-43 40,-72 22,-24 40,-50 40,-58 0,-8 -13,-27 -30,-43 -34,-32 -38,-66 -16,-118 26,-61 81,-87 143,-66 28,9 39,21 58,63 27,61 39,72 134,122 86,45 188,134 208,182 l 14,33 42,-24 c 23,-13 52,-28 65,-31 20,-7 22,-4 22,31 0,37 -1,39 -87,87 -48,27 -106,51 -128,54 -22,2 -46,9 -52,15 -19,14 -16,45 5,56 15,8 31,1 77,-30 58,-39 79,-46 103,-30 27,17 9,55 -38,79 -54,29 -62,39 -54,74 9,46 -13,93 -64,134 -26,21 -50,43 -54,49 -15,20 -8,35 16,35 30,0 86,-51 86,-79 0,-29 43,-49 65,-31 8,7 15,21 15,32 0,10 25,42 55,70 54,50 55,52 55,107 v 55 l -74,-73 -74,-74 -40,32 c -29,24 -55,34 -97,40 -66,9 -94,35 -95,87 0,31 26,63 83,97 34,22 35,53 2,79 -30,23 -31,43 -6,81 17,26 18,46 15,215 -2,103 -6,201 -10,217 -3,19 -28,51 -70,91 -35,33 -64,66 -64,72 0,7 18,32 41,56 39,43 42,45 112,49 40,3 86,8 104,12 27,6 34,3 48,-19 15,-22 16,-39 10,-109 -14,-150 -4,-692 13,-724 20,-37 14,-69 -19,-97 -39,-33 -45,-33 -114,4 -31,17 -65,30 -75,30 -44,0 -50,-63 -7,-80 12,-4 50,-20 85,-35 80,-34 105,-29 169,38 62,63 70,85 46,129 -14,27 -18,60 -19,179 -1,80 -7,200 -14,266 -12,106 -11,129 3,204 21,103 21,132 2,196 -27,92 -84,119 -180,88 z m 13,-1661 c 12,-4 22,-12 22,-19 0,-25 -146,-150 -221,-189 -94,-49 -107,-61 -130,-114 -21,-48 -44,-62 -66,-39 -22,22 -10,59 27,80 47,28 41,68 -20,142 -53,63 -63,95 -31,95 19,0 86,-82 109,-132 15,-36 50,-37 82,-3 13,14 52,44 87,66 43,28 71,55 84,81 21,40 22,41 57,32 z"
       id="path536" />
    <path
       d="m 906,3155 c -3,-9 -6,-33 -6,-53 0,-20 -7,-59 -15,-87 -13,-40 -14,-67 -6,-145 13,-119 16,-344 7,-430 -6,-55 -3,-73 16,-120 21,-49 27,-55 52,-55 45,0 55,26 28,73 -25,46 -27,61 -17,157 4,39 2,158 -4,265 -11,176 -11,203 6,283 13,64 15,92 7,105 -15,23 -60,28 -68,7 z"
       id="path538" />
    <path
       d="m 782,3128 c -13,-13 -16,-66 -6,-92 9,-23 61,-21 74,3 32,60 -24,133 -68,89 z"
       id="path540" />
    <path
       d="m 1123,2875 c 0,-33 2,-45 4,-27 2,18 2,45 0,60 -2,15 -4,0 -4,-33 z"
       id="path542" />
    <path
       d="m 1114,2744 c -4,-14 -2,-30 5,-37 8,-8 11,-1 11,26 0,43 -7,48 -16,11 z"
       id="path544" />
    <path
       d="m 1074,1984 c -92,-106 -94,-127 -24,-193 55,-51 58,-60 34,-96 -23,-36 -15,-69 19,-73 l 27,-3 v 99 c 0,78 -3,102 -16,112 -33,28 -35,47 -8,79 21,25 25,38 22,82 l -3,53 z"
       id="path546" />
    <path
       d="M 135,1525 C 75,1504 56,1475 66,1420 82,1325 74,1210 46,1137 17,1061 13,1002 34,942 46,908 46,895 35,858 24,821 24,808 36,775 49,739 49,729 33,682 17,632 17,626 32,583 c 12,-33 14,-53 7,-71 -20,-51 56,-77 79,-26 7,14 28,32 48,40 20,8 44,29 56,49 23,40 31,43 51,14 8,-11 37,-27 63,-35 35,-10 59,-26 85,-56 29,-34 47,-45 85,-53 48,-10 49,-11 49,-49 0,-63 -23,-68 -78,-15 C 316,537 294,545 174,479 65,419 48,377 97,290 l 27,-49 -17,-48 C 76,105 87,62 154,21 181,4 204,0 274,0 c 74,0 89,3 107,21 18,18 20,28 14,84 -5,39 -3,76 4,98 15,46 -2,90 -53,135 -51,44 -81,50 -127,24 -47,-27 -69,-28 -69,-2 0,13 17,29 53,50 65,37 101,39 123,5 9,-13 32,-34 51,-46 19,-12 44,-31 55,-43 21,-22 21,-7 4,-258 L 431,0 h 130 129 v 65 c 0,35 -5,75 -11,89 -17,36 4,63 77,100 52,27 63,38 89,91 31,63 90,129 106,119 21,-13 6,-50 -36,-91 -34,-32 -45,-50 -45,-73 0,-50 -16,-70 -56,-70 -55,0 -84,-36 -84,-102 0,-29 3,-70 6,-90 6,-35 9,-38 40,-38 22,0 34,5 36,16 2,13 19,17 80,19 82,4 129,22 152,58 8,13 16,62 19,119 5,83 3,99 -12,112 -10,9 -23,16 -29,16 -15,0 -15,3 5,45 19,40 17,48 -32,184 -26,73 -27,75 -11,137 20,79 20,118 1,229 -15,84 -15,91 7,178 16,65 30,100 51,124 51,58 55,31 12,-82 -21,-57 -22,-71 -20,-325 2,-240 4,-270 23,-320 24,-64 43,-187 49,-317 l 4,-92 -47,-51 -47,-50 h 57 56 v 263 c 0,206 -3,273 -15,312 -13,42 -14,61 -4,116 11,63 8,209 -7,317 -4,27 0,60 10,92 12,36 16,88 16,198 0,171 -5,182 -79,182 -36,0 -47,-5 -69,-32 -57,-70 -119,-119 -172,-139 -71,-26 -94,-49 -137,-133 l -34,-68 -50,6 c -66,9 -91,-6 -168,-98 -34,-42 -67,-76 -73,-76 -6,0 -25,12 -43,28 -18,15 -45,35 -60,45 -17,13 -25,26 -23,40 5,37 35,32 65,-12 37,-54 77,-57 98,-8 7,18 25,38 39,45 38,17 36,69 -4,107 -39,37 -45,73 -24,137 21,66 21,96 -5,146 -34,67 -43,72 -134,72 -45,-1 -100,-7 -122,-15 z m 177,-72 c 26,-29 29,-57 13,-109 -24,-80 -20,-135 14,-178 28,-35 32,-66 9,-66 -18,0 -73,52 -79,74 -3,12 -2,65 3,117 12,127 12,131 -13,150 -17,12 -19,18 -8,22 26,10 46,7 61,-10 z m -82,2 c 0,-3 -6,-16 -14,-28 -10,-14 -17,-67 -22,-154 -6,-118 -10,-137 -30,-165 -25,-33 -31,-77 -14,-108 5,-10 38,-38 74,-64 55,-39 66,-52 80,-96 l 17,-52 -67,-61 c -36,-33 -77,-78 -90,-99 -31,-49 -64,-52 -64,-7 0,44 15,66 54,79 47,15 106,82 106,119 0,41 -54,96 -107,110 -38,10 -44,16 -53,52 -12,45 -7,81 22,148 25,58 37,188 24,258 -8,44 -7,56 5,64 15,9 79,13 79,4 z m 850,-74 c 11,-22 14,-74 4,-84 -4,-3 -13,1 -21,9 -9,8 -27,14 -41,12 -61,-7 -132,-214 -116,-338 10,-82 10,-228 0,-301 -7,-43 -5,-68 8,-104 18,-55 15,-65 -21,-65 -32,0 -74,-45 -108,-116 -22,-47 -33,-58 -85,-84 -39,-19 -65,-41 -75,-60 -16,-32 -50,-46 -85,-35 -34,11 -22,48 17,56 18,3 40,12 48,19 38,32 42,163 5,200 -9,9 -37,20 -61,24 -35,5 -53,16 -84,50 -30,32 -56,48 -99,62 -63,20 -80,39 -51,60 32,23 52,16 137,-50 46,-35 97,-71 115,-80 36,-18 85,-21 113,-6 26,14 43,74 36,125 -6,36 -3,49 19,80 29,44 31,74 9,117 -10,20 -14,42 -9,64 4,23 -1,48 -15,82 l -21,49 39,74 c 37,68 44,76 91,94 66,26 151,88 179,131 25,38 56,44 72,15 z M 634,1021 c 10,-11 20,-38 23,-61 6,-39 5,-42 -17,-38 -17,2 -26,12 -32,35 -9,34 -40,59 -59,47 -6,-3 -18,-23 -26,-43 -9,-20 -33,-51 -54,-69 -59,-51 -55,-79 22,-136 37,-28 71,-46 88,-46 45,0 66,-23 62,-72 -2,-34 -43,-18 -144,58 -56,42 -108,79 -116,84 -21,11 4,92 38,123 14,13 48,49 74,80 43,51 52,57 86,57 25,0 44,-7 55,-19 z M 584,855 c 11,-8 37,-15 58,-15 31,0 38,-4 38,-19 0,-16 -24,-51 -34,-51 -1,0 -25,7 -53,15 -62,18 -79,35 -63,64 13,25 28,26 54,6 z M 164,841 c 19,-21 13,-47 -16,-62 -35,-19 -59,20 -42,65 8,22 37,20 58,-3 z M 990,242 c 0,-115 -6,-123 -101,-133 -80,-9 -102,-1 -83,29 9,13 25,17 67,17 30,0 59,4 63,8 5,5 7,35 6,69 -3,46 1,64 14,79 9,10 21,19 26,19 4,0 8,-40 8,-88 z m -675,25 c 19,-27 19,-51 1,-66 -13,-11 -39,-4 -106,29 -25,12 -17,34 18,51 38,20 67,15 87,-14 z M 216,143 c 14,-9 42,-19 62,-22 31,-5 37,-10 37,-31 0,-21 -5,-26 -34,-28 -66,-7 -131,41 -110,80 12,22 13,22 45,1 z m 394,-18 c 6,-8 10,-22 8,-32 -3,-14 -13,-18 -53,-18 -51,0 -65,14 -51,51 7,19 80,19 96,-1 z"
       id="path548" />
    <path
       d="m 820,1188 c -11,-18 -29,-52 -41,-75 l -20,-42 20,-108 c 26,-137 26,-183 0,-235 -15,-29 -19,-50 -14,-72 14,-69 11,-79 -25,-104 -40,-27 -52,-47 -70,-119 -16,-61 -4,-86 39,-81 19,2 27,9 29,28 7,71 22,99 68,126 56,33 69,62 49,111 -20,47 -19,58 7,121 l 22,52 -23,139 c -25,151 -25,153 31,223 21,27 21,28 3,48 -26,29 -52,25 -75,-12 z"
       id="path550" />
    <path
       d="m 0,1300 c 1,-149 9,-165 29,-58 7,39 7,77 0,120 -18,113 -29,90 -29,-62 z"
       id="path552" />
    <path
       d="M 0,267 C 0,96 3,11 10,15 50,40 71,208 45,300 37,330 30,382 30,415 30,448 23,486 15,500 2,522 1,496 0,267 Z"
       id="path554" />
    <path
       d="M 68,3 C 74,1 86,1 93,3 99,6 94,8 80,8 66,8 61,6 68,3 Z"
       id="path556" />
  </g>
</svg>
