<?xml version="1.0" encoding="UTF-8" standalone="no"?>
<!-- Created with Inkscape (http://www.inkscape.org/) -->

<svg
   width="210mm"
   height="297mm"
   viewBox="0 0 210 297"
   version="1.1"
   id="svg2194"
   sodipodi:docname="chain-stay-tube.svg"
   inkscape:version="1.1.2 (1:1.1+202202050852+0a00cf5339)"
   xmlns:inkscape="http://www.inkscape.org/namespaces/inkscape"
   xmlns:sodipodi="http://sodipodi.sourceforge.net/DTD/sodipodi-0.dtd"
   xmlns="http://www.w3.org/2000/svg"
   xmlns:svg="http://www.w3.org/2000/svg">
  <sodipodi:namedview
     id="namedview2196"
     pagecolor="#ffffff"
     bordercolor="#666666"
     borderopacity="1.0"
     inkscape:pageshadow="2"
     inkscape:pageopacity="0.0"
     inkscape:pagecheckerboard="0"
     inkscape:document-units="mm"
     showgrid="false"
     inkscape:zoom="0.23919402"
     inkscape:cx="395.07676"
     inkscape:cy="698.17798"
     inkscape:window-width="1366"
     inkscape:window-height="703"
     inkscape:window-x="0"
     inkscape:window-y="0"
     inkscape:window-maximized="1"
     inkscape:current-layer="svg2194" />
  <defs
     id="defs2191" />
  <g
     inkscape:label="Layer 1"
     inkscape:groupmode="layer"
     id="layer1" />
  <g
     transform="matrix(0.10638298,0,0,-0.10574018,0,350)"
     fill="#000000"
     stroke="none"
     id="g2358">
    <path
       d="m 0,3294 c 0,-14 3,-14 15,-4 8,7 15,14 15,16 0,2 -7,4 -15,4 -8,0 -15,-7 -15,-16 z"
       id="path2340" />
    <path
       d="m 78,3288 c -2,-15 -15,-28 -36,-37 -42,-19 -48,-44 -32,-146 7,-46 10,-93 7,-106 -9,-34 9,-59 43,-59 19,0 31,6 35,19 6,19 -9,163 -20,191 -3,9 1,24 9,35 14,19 15,19 33,2 15,-15 18,-32 16,-107 -2,-80 0,-91 18,-104 27,-19 17,-34 -27,-42 C 35,2917 -1,2782 6,2490 c 6,-244 6,-266 -1,-330 -4,-47 0,-67 28,-135 30,-75 35,-82 84,-108 61,-33 67,-53 19,-62 -33,-7 -76,7 -76,24 0,5 -13,25 -30,46 l -29,37 1,-224 c 1,-159 5,-237 15,-273 27,-97 27,-96 4,-102 -17,-4 -21,-13 -21,-44 0,-46 13,-50 71,-17 38,21 43,21 107,8 63,-12 129,-15 212,-10 19,2 45,-1 58,-5 20,-7 22,-4 22,28 0,19 -7,40 -16,48 -11,9 -14,22 -10,43 3,17 2,47 -4,65 -10,36 -56,91 -75,91 -26,0 -43,37 -47,103 -6,94 -17,104 -98,86 -86,-19 -94,-31 -98,-147 -4,-133 9,-158 98,-189 83,-29 98,-29 112,2 15,32 -2,52 -51,61 -62,10 -68,14 -81,44 -16,38 -8,139 11,150 24,16 39,-8 33,-54 -8,-52 6,-80 49,-102 59,-30 77,-53 77,-101 0,-61 -27,-71 -135,-48 -44,9 -90,19 -102,21 -29,6 -57,97 -55,184 1,36 2,95 2,133 l 1,67 h 42 c 23,1 53,7 67,15 14,7 37,11 51,8 27,-5 59,17 59,42 0,7 -13,24 -29,37 -16,13 -34,33 -40,46 -6,12 -34,33 -61,47 -42,21 -51,31 -68,77 -33,90 -34,96 -16,153 16,49 16,61 5,98 -33,105 -14,487 28,538 16,21 133,58 182,59 44,0 54,22 40,88 -31,142 -42,162 -91,162 -24,0 -33,9 -59,55 -17,30 -31,66 -31,80 0,22 -4,25 -39,25 -33,0 -40,-4 -43,-22 z m 173,-235 c 5,-15 9,-41 7,-57 -3,-27 -7,-31 -37,-34 -29,-3 -33,-1 -26,15 5,10 10,37 13,61 5,49 27,57 43,15 z"
       id="path2342" />
    <path
       d="m 200,3294 c 0,-33 44,-86 96,-115 55,-31 74,-64 74,-128 0,-13 7,-50 16,-84 8,-33 13,-71 9,-84 -5,-21 -11,-23 -61,-23 -157,0 -209,-53 -216,-221 -4,-83 10,-103 64,-96 23,3 44,0 55,-9 48,-36 89,-7 78,57 -4,24 -2,59 5,84 14,49 2,85 -29,85 -30,0 -44,-26 -50,-93 -4,-43 -10,-62 -20,-62 -24,0 -34,29 -27,79 10,64 39,93 102,101 73,9 78,0 65,-118 -6,-52 -8,-116 -5,-141 9,-60 -4,-64 -106,-37 -98,26 -95,26 -120,1 -16,-16 -20,-33 -20,-80 0,-52 4,-64 29,-92 29,-32 31,-33 126,-36 100,-4 122,-15 95,-47 -16,-19 -39,-19 -129,2 l -73,17 -20,-24 c -16,-20 -19,-36 -16,-83 5,-69 28,-104 86,-132 28,-13 45,-29 52,-49 6,-17 23,-44 39,-61 19,-19 31,-44 34,-70 2,-22 10,-67 16,-100 7,-33 16,-75 19,-94 7,-34 11,-38 70,-65 l 32,-14 v 41 c 0,31 -5,45 -20,55 -14,9 -20,23 -20,50 0,20 -7,59 -15,86 -8,27 -15,58 -15,68 0,30 30,35 52,9 18,-23 18,-23 18,54 0,168 -59,231 -163,175 -20,-11 -46,-20 -56,-20 -21,0 -64,47 -58,64 2,7 41,11 105,11 91,0 104,2 123,22 32,31 32,124 1,156 -20,20 -33,22 -116,22 -94,0 -126,10 -126,42 0,21 26,27 73,15 80,-20 144,-24 159,-8 11,11 16,60 21,211 5,150 10,202 22,218 17,25 20,103 5,143 -6,15 -15,61 -21,103 -13,93 -32,126 -95,160 -54,29 -64,54 -22,59 20,2 34,-5 54,-27 41,-47 94,-38 94,16 0,23 -1,23 -135,23 -118,0 -135,-2 -135,-16 z M 394,1999 c 18,-73 -15,-87 -55,-23 -17,28 -19,37 -8,50 22,26 53,13 63,-27 z"
       id="path2344" />
    <path
       d="m 463,2400 c 0,-25 2,-35 4,-22 2,12 2,32 0,45 -2,12 -4,2 -4,-23 z"
       id="path2346" />
    <path
       d="m 100,1255 c -14,-8 -42,-14 -62,-15 -37,0 -38,-1 -38,-35 0,-47 29,-54 109,-26 l 59,20 62,-21 c 56,-19 68,-19 115,-8 30,7 70,10 89,7 l 36,-6 v 39 c 0,36 -2,38 -35,42 -19,2 -62,0 -94,-6 -48,-8 -67,-6 -103,7 -53,21 -104,21 -138,2 z"
       id="path2348" />
    <path
       d="m 115,1130 c -29,-15 -50,-20 -78,-15 -37,5 -37,5 -37,-29 0,-25 6,-38 26,-51 20,-13 23,-19 14,-30 -6,-8 -18,-11 -26,-8 -11,4 -14,-4 -14,-35 0,-35 2,-39 20,-35 11,3 27,0 35,-7 9,-8 29,-10 51,-7 l 36,6 -7,-54 c -6,-49 -4,-55 16,-66 15,-8 42,-9 83,-4 111,13 106,15 139,-40 38,-65 41,-100 7,-100 -20,0 -25,6 -32,40 -5,22 -16,46 -25,53 -26,19 -107,15 -134,-7 -22,-18 -24,-28 -31,-158 -4,-87 -2,-151 4,-172 8,-25 7,-53 -2,-104 -11,-54 -11,-79 -2,-113 7,-24 12,-48 12,-53 0,-14 -25,-20 -41,-10 -18,11 -23,391 -7,519 11,83 10,87 -18,155 C 75,873 73,875 40,875 -6,875 -11,846 26,791 52,751 53,746 45,667 41,622 37,558 38,525 42,213 42,206 21,188 8,178 0,160 0,141 0,113 3,110 30,110 67,110 94,73 88,30 84,1 85,0 122,0 c 31,0 38,3 38,20 0,12 17,32 42,50 40,29 44,30 155,30 h 113 v 39 39 l -107,-3 c -62,-1 -113,2 -120,7 -16,13 -17,111 -3,139 8,14 21,19 50,19 26,0 48,7 66,23 24,21 25,26 14,46 -10,20 -17,22 -48,17 -84,-15 -87,-14 -90,22 l -3,33 73,-7 c 40,-3 79,-11 86,-17 17,-14 16,-141 -2,-156 -8,-7 -29,-9 -54,-5 -64,10 -106,-28 -70,-64 16,-16 180,-16 196,0 8,8 12,53 12,135 0,117 -1,125 -24,147 -19,20 -38,25 -112,31 -49,4 -92,13 -96,19 -11,15 -10,88 1,105 13,20 41,6 41,-21 0,-47 24,-65 96,-72 87,-9 94,-3 94,88 0,53 -5,79 -20,104 -24,39 -25,55 -4,87 9,13 18,51 21,85 5,55 4,60 -14,60 -26,0 -47,-26 -61,-76 -7,-23 -19,-47 -27,-54 -26,-22 -30,17 -6,74 11,28 21,61 21,72 0,31 24,47 60,39 30,-6 30,-6 30,34 v 41 h -64 c -56,0 -67,-3 -80,-22 -9,-12 -16,-37 -16,-55 0,-18 -9,-55 -20,-83 -11,-28 -20,-59 -20,-70 0,-26 -34,-44 -49,-26 -9,10 -4,32 19,89 45,112 36,177 -23,177 -12,0 -31,3 -42,6 -11,2 -38,-5 -60,-16 z m 72,-96 c -6,-38 -31,-84 -46,-84 -9,0 -31,45 -31,65 0,22 37,55 61,55 19,0 21,-4 16,-36 z"
       id="path2350" />
    <path
       d="m 3,665 c 0,-33 2,-45 4,-27 2,18 2,45 0,60 -2,15 -4,0 -4,-33 z"
       id="path2352" />
    <path
       d="M 0,40 C 0,3 2,-1 21,2 70,9 70,71 21,78 2,81 0,77 0,40 Z"
       id="path2354" />
    <path
       d="M 263,49 C 235,38 209,23 206,15 201,2 221,0 335,0 H 470 V 37 73 L 445,50 420,26 381,48 c -47,26 -52,26 -118,1 z"
       id="path2356" />
  </g>
</svg>
