<?xml version="1.0" encoding="UTF-8" standalone="no"?>
<!-- Created with Inkscape (http://www.inkscape.org/) -->

<svg
   width="210mm"
   height="297mm"
   viewBox="0 0 210 297"
   version="1.1"
   id="svg109"
   sodipodi:docname="front-fork.svg"
   inkscape:version="1.1.2 (1:1.1+202202050852+0a00cf5339)"
   xmlns:inkscape="http://www.inkscape.org/namespaces/inkscape"
   xmlns:sodipodi="http://sodipodi.sourceforge.net/DTD/sodipodi-0.dtd"
   xmlns="http://www.w3.org/2000/svg"
   xmlns:svg="http://www.w3.org/2000/svg">
  <sodipodi:namedview
     id="namedview111"
     pagecolor="#ffffff"
     bordercolor="#666666"
     borderopacity="1.0"
     inkscape:pageshadow="2"
     inkscape:pageopacity="0.0"
     inkscape:pagecheckerboard="0"
     inkscape:document-units="mm"
     showgrid="false"
     inkscape:zoom="0.33827143"
     inkscape:cx="474.47105"
     inkscape:cy="375.43815"
     inkscape:window-width="1216"
     inkscape:window-height="703"
     inkscape:window-x="0"
     inkscape:window-y="0"
     inkscape:window-maximized="0"
     inkscape:current-layer="svg109" />
  <defs
     id="defs106" />
  <g
     inkscape:label="Layer 1"
     inkscape:groupmode="layer"
     id="layer1" />
  <g
     transform="matrix(0.10526316,0,0,-0.10583942,0,290.00001)"
     fill="#000000"
     stroke="none"
     id="g1646">
    <path
       d="m 0,2730 c 0,-5 17,-10 38,-10 90,0 101,-19 79,-127 -10,-48 -12,-85 -6,-114 4,-24 8,-81 9,-126 0,-76 2,-85 27,-113 37,-41 84,-47 168,-25 l 65,18 v 38 38 l -36,-6 c -35,-6 -36,-5 -24,17 9,17 9,40 -1,105 -11,75 -10,106 8,228 3,25 13,43 29,54 13,8 24,19 24,24 0,5 -85,9 -190,9 -120,0 -190,-4 -190,-10 z m 263,-30 c 0,-8 -9,-51 -18,-94 -14,-65 -15,-93 -7,-150 6,-39 10,-84 10,-101 0,-18 8,-36 22,-47 l 22,-18 -25,-11 c -24,-11 -66,1 -68,19 -2,22 -11,184 -11,222 -1,46 10,165 18,188 6,19 59,11 57,-8 z"
       id="path1620" />
    <path
       d="M 16,2682 C 2,2665 0,2636 1,2448 c 1,-207 2,-215 20,-211 11,3 28,17 39,31 25,31 26,84 4,180 -13,58 -14,80 -4,119 21,88 22,103 10,118 -17,20 -33,19 -54,-3 z"
       id="path1622" />
    <path
       d="m 366,2593 c -8,-50 -6,-132 4,-163 5,-16 8,16 9,88 1,61 -1,112 -3,112 -2,0 -6,-17 -10,-37 z"
       id="path1624" />
    <path
       d="M 38,2203 C 3,2189 0,2184 0,2149 c 0,-44 5,-46 55,-22 33,16 37,16 52,1 31,-32 -10,-68 -78,-68 -27,0 -29,-2 -29,-41 v -40 l 48,7 c 101,14 147,53 147,125 0,43 -24,75 -72,95 -39,17 -39,17 -85,-3 z"
       id="path1626" />
    <path
       d="m 301,2171 c -41,-7 -68,-41 -77,-96 -9,-61 15,-85 94,-92 l 62,-6 v 37 c 0,33 -3,36 -27,36 -64,1 -70,43 -9,54 33,6 36,10 36,41 0,38 -5,40 -79,26 z"
       id="path1628" />
    <path
       d="m 132,1960 c -18,-11 -55,-25 -83,-31 l -49,-11 1,-96 1,-97 15,50 c 21,71 27,80 54,83 13,1 45,12 71,24 52,23 78,19 78,-12 0,-22 -24,-35 -82,-45 -48,-7 -73,-39 -99,-127 -15,-48 -19,-82 -15,-110 5,-29 2,-47 -9,-65 C 3,1506 0,1479 2,1422 l 3,-77 80,-1 c 44,-1 98,-5 121,-9 78,-14 133,38 113,107 -13,48 -12,51 26,107 41,60 43,78 11,93 -35,15 -52,5 -74,-45 -24,-53 -39,-65 -59,-44 -33,33 10,107 64,107 12,0 38,14 58,31 l 35,31 v 103 c 0,114 0,115 -78,115 -19,0 -45,9 -59,20 -33,25 -69,25 -111,0 z m 205,-106 c 3,-8 0,-33 -6,-55 -12,-40 -22,-47 -108,-79 -49,-18 -72,-50 -80,-110 -6,-39 -13,-55 -23,-55 -12,0 -15,14 -14,65 1,96 17,122 84,138 63,16 85,32 95,70 10,40 40,56 52,26 z M 234,1464 c 39,-38 7,-64 -55,-44 -28,10 -48,10 -72,3 -39,-12 -57,-7 -57,16 0,32 22,41 96,41 53,0 77,-4 88,-16 z"
       id="path1630" />
    <path
       d="m 364,1488 c -11,-17 -7,-94 5,-115 8,-14 10,-2 11,55 0,72 -3,82 -16,60 z"
       id="path1632" />
    <path
       d="m 0,1272 c 0,-36 3,-40 31,-46 17,-3 47,-6 66,-6 65,0 91,-32 59,-75 -13,-17 -15,-17 -49,9 -19,15 -51,30 -71,33 -36,6 -36,5 -36,-29 0,-30 5,-38 29,-48 46,-18 66,-49 95,-138 45,-142 33,-282 -24,-282 -27,0 -33,17 -16,42 47,66 -15,348 -76,348 -13,0 -9,-105 7,-166 15,-59 11,-194 -6,-194 -5,0 -9,-18 -9,-40 0,-37 2,-40 41,-50 22,-6 49,-21 60,-33 10,-12 26,-30 35,-40 11,-14 23,-17 42,-13 77,18 110,18 156,-2 l 46,-21 v 43 c 0,42 -1,42 -50,60 -36,13 -63,16 -95,11 -61,-9 -73,1 -41,34 25,26 26,34 28,137 1,89 -3,120 -20,168 -29,79 -28,97 8,118 26,15 30,23 30,62 0,38 4,48 27,63 15,10 46,18 70,18 h 43 v 38 37 h -45 c -27,0 -63,-9 -86,-21 -33,-17 -46,-18 -68,-10 -14,6 -53,13 -87,15 -33,3 -68,8 -77,12 -14,5 -17,0 -17,-34 z"
       id="path1634" />
    <path
       d="m 290,1161 c -53,-76 -64,-155 -30,-230 22,-48 24,-85 9,-150 -15,-65 1,-94 62,-119 l 49,-21 v 35 c 0,25 -7,41 -22,53 -20,17 -21,21 -9,77 12,61 8,86 -30,180 -11,27 -10,39 5,77 10,27 26,49 37,52 14,5 19,16 19,41 0,32 -2,34 -34,34 -27,0 -39,-7 -56,-29 z"
       id="path1636" />
    <path
       d="m 357,1063 c -11,-11 -7,-46 8,-73 14,-24 14,-23 15,28 0,48 -7,62 -23,45 z"
       id="path1638" />
    <path
       d="m 0,562 c 0,-31 8,-46 40,-79 44,-46 85,-62 143,-55 41,5 41,4 27,-32 -12,-33 24,-141 54,-161 12,-8 43,-18 69,-21 l 47,-7 v 36 c 0,33 -3,37 -35,43 -38,7 -55,28 -55,69 0,14 -11,37 -25,51 -19,19 -22,26 -10,30 29,12 51,-3 75,-50 36,-72 50,-71 50,4 0,77 -9,94 -63,115 -34,13 -52,14 -87,6 C 150,492 134,496 75,550 45,578 15,600 10,600 4,600 0,583 0,562 Z"
       id="path1640" />
    <path
       d="m 0,382 v -62 h 49 c 54,0 74,-21 47,-48 C 85,260 75,260 49,269 3,285 0,284 0,246 0,221 6,208 26,196 55,176 53,154 22,158 2,161 0,157 0,119 V 77 l 24,22 24,22 33,-20 c 40,-25 78,-27 105,-6 24,18 57,19 118,0 72,-22 76,-21 76,25 0,37 -2,40 -27,40 -16,0 -48,9 -72,20 -54,25 -72,25 -104,0 -30,-24 -41,-25 -57,-6 -9,12 -4,19 29,41 48,29 52,55 21,123 -21,46 -48,62 -105,62 -24,0 -39,7 -49,22 C 1,443 0,441 0,382 Z"
       id="path1642" />
    <path
       d="M 13,53 C 6,51 0,37 0,24 V 0 h 190 190 v 24 c 0,21 -4,23 -47,23 -27,0 -61,4 -76,8 -19,5 -40,2 -65,-9 C 158,31 151,31 111,45 67,60 36,63 13,53 Z"
       id="path1644" />
  </g>
</svg>
