<?xml version="1.0" encoding="UTF-8" standalone="no"?>
<!-- Created with Inkscape (http://www.inkscape.org/) -->

<svg
   width="210mm"
   height="297mm"
   viewBox="0 0 210 297"
   version="1.1"
   id="svg1798"
   sodipodi:docname="head-tube.svg"
   inkscape:version="1.1.2 (1:1.1+202202050852+0a00cf5339)"
   xmlns:inkscape="http://www.inkscape.org/namespaces/inkscape"
   xmlns:sodipodi="http://sodipodi.sourceforge.net/DTD/sodipodi-0.dtd"
   xmlns="http://www.w3.org/2000/svg"
   xmlns:svg="http://www.w3.org/2000/svg">
  <sodipodi:namedview
     id="namedview1800"
     pagecolor="#ffffff"
     bordercolor="#666666"
     borderopacity="1.0"
     inkscape:pageshadow="2"
     inkscape:pageopacity="0.0"
     inkscape:pagecheckerboard="0"
     inkscape:document-units="mm"
     showgrid="false"
     inkscape:zoom="0.67654286"
     inkscape:cx="334.79032"
     inkscape:cy="177.37235"
     inkscape:window-width="966"
     inkscape:window-height="703"
     inkscape:window-x="0"
     inkscape:window-y="0"
     inkscape:window-maximized="0"
     inkscape:current-layer="svg1798" />
  <defs
     id="defs1795" />
  <g
     inkscape:label="Layer 1"
     inkscape:groupmode="layer"
     id="layer1">
    <rect
       style="fill:#ff0000;stroke-width:0.264583"
       id="rect1846"
       x="1.4267343"
       y="-9.1006508"
       width="0"
       height="0"
       rx="70"
       ry="110" />
  </g>
  <g
     transform="matrix(0.10590015,0,0,-0.10638298,273.21231,73.581673)"
     fill="#000000"
     stroke="none"
     id="g2503">
    <path
       d="m 0,905 c 0,-42 9,-43 49,-9 41,34 39,44 -9,44 C 1,940 0,939 0,905 Z"
       id="path2487" />
    <path
       d="m 185,930 c 11,-5 43,-9 70,-9 28,0 59,4 70,9 13,6 -11,9 -70,9 -59,0 -83,-3 -70,-9 z"
       id="path2489" />
    <path
       d="m 380,927 c 0,-7 6,-22 14,-33 13,-17 28,-19 118,-20 57,0 112,-3 123,-5 17,-3 20,2 23,34 l 3,37 H 521 c -110,0 -141,-3 -141,-13 z"
       id="path2491" />
    <path
       d="M 115,900 C 79,886 29,823 19,784 4,715 8,635 29,609 c 17,-21 27,-24 83,-22 168,4 181,3 203,-17 26,-24 58,-26 76,-4 11,13 10,21 -5,48 -15,28 -17,53 -14,142 3,107 3,108 -22,120 -18,9 -40,10 -82,2 -52,-9 -60,-8 -84,11 -29,23 -38,24 -69,11 z m 55,-95 c 0,-9 -7,-29 -15,-46 -10,-19 -14,-41 -9,-63 5,-29 3,-35 -16,-41 -15,-5 -28,-2 -38,8 -13,13 -13,24 -4,73 7,31 17,63 23,70 16,19 59,18 59,-1 z m 126,-62 c -3,-38 -5,-72 -6,-76 0,-15 -53,-3 -63,15 -21,33 23,128 59,128 12,0 14,-13 10,-67 z"
       id="path2493" />
    <path
       d="m 445,818 -28,-22 7,-93 c 4,-61 3,-101 -5,-114 -6,-11 -13,-68 -16,-127 -5,-100 -4,-111 22,-175 15,-38 30,-87 33,-109 4,-34 1,-43 -24,-66 C 418,97 398,74 389,60 372,35 372,35 351,54 c -20,18 -26,19 -68,7 -42,-11 -50,-10 -72,7 -22,16 -27,29 -29,74 -4,67 8,80 81,86 41,3 56,0 67,-12 11,-15 11,-19 -2,-33 -14,-13 -22,-14 -49,-4 -26,9 -37,8 -56,-4 -30,-20 -29,-40 2,-61 34,-22 136,-16 165,11 41,37 16,158 -35,171 C 311,307 185,295 160,277 101,236 83,151 115,73 146,-2 136,1 394,1 c 163,0 224,3 206,10 -14,6 -51,7 -82,4 -47,-6 -58,-4 -58,7 0,31 37,51 80,44 22,-3 58,-3 80,0 l 40,7 v 88 c 0,72 -3,92 -18,107 -23,23 -56,163 -48,205 3,18 13,57 21,87 8,30 12,69 9,86 -3,17 -1,57 5,89 9,49 8,62 -4,82 -14,20 -23,23 -84,23 -55,0 -74,-4 -96,-22 z m 102,-60 c 11,-20 3,-157 -13,-212 -20,-69 -18,-132 7,-234 25,-101 30,-108 70,-117 24,-5 29,-12 27,-28 -2,-18 -11,-23 -41,-25 -47,-4 -67,11 -67,49 0,16 -12,58 -26,94 -24,60 -25,71 -19,172 4,59 7,149 9,198 1,93 7,115 31,115 8,0 17,-6 22,-12 z"
       id="path2495" />
    <path
       d="M 13,563 C 4,560 0,527 0,451 0,352 2,342 23,322 c 29,-27 71,-28 120,-2 28,15 56,20 116,20 70,0 82,3 95,21 17,25 12,111 -10,146 -18,29 -105,47 -154,33 -55,-16 -105,-12 -133,10 -14,11 -27,20 -29,19 -1,0 -9,-3 -15,-6 z M 280,455 c 7,-8 10,-22 6,-30 -5,-13 -15,-15 -52,-9 -37,5 -56,2 -96,-17 -58,-27 -83,-19 -83,27 0,28 1,29 46,26 25,-1 56,2 70,7 37,15 95,13 109,-4 z"
       id="path2497" />
    <path
       d="m 646,544 c -10,-25 -7,-168 4,-184 7,-10 10,19 10,93 0,59 -2,107 -4,107 -2,0 -7,-7 -10,-16 z"
       id="path2499" />
    <path
       d="M 22,268 C -1,257 -1,253 1,128 L 4,0 h 43 c 40,0 43,2 43,28 0,15 -9,41 -20,57 -26,39 -26,87 0,110 24,22 26,48 4,69 -18,18 -21,19 -52,4 z"
       id="path2501" />
  </g>
  <g
     transform="matrix(0.10606061,0,0,-0.10638298,0,100)"
     fill="#000000"
     stroke="none"
     id="g3835">
    <path
       d="M 24,848 C 34,717 34,711 16,691 7,681 0,659 0,642 c 0,-27 4,-32 23,-32 35,0 66,27 73,66 7,41 29,54 51,32 13,-14 12,-21 -12,-69 C 102,574 97,570 43,570 H 0 v -40 -39 l 53,2 c 49,2 52,1 52,-23 0,-24 -3,-25 -52,-23 l -53,2 v -39 -40 h 43 c 54,0 59,-4 92,-69 24,-48 25,-55 12,-69 -22,-22 -44,-9 -51,32 -7,39 -38,66 -73,66 C 4,330 0,325 0,298 0,281 7,259 16,249 34,229 34,223 24,92 L 17,0 h 42 42 l -3,66 c -2,71 5,84 53,84 14,0 33,8 42,18 15,16 33,18 136,18 99,-1 122,-4 138,-18 11,-10 30,-18 44,-18 45,0 53,-14 51,-84 L 559,0 h 42 42 l -7,92 c -10,131 -10,137 8,157 9,10 16,32 16,49 0,27 -4,32 -23,32 -35,0 -66,-27 -73,-66 -7,-41 -29,-54 -51,-32 -13,14 -12,21 12,69 33,65 38,69 93,69 h 42 v 40 39 l -52,-2 c -50,-2 -53,-1 -53,23 0,24 3,25 53,23 l 52,-2 v 39 40 h -50 -50 l -31,61 c -27,55 -29,63 -16,77 22,22 44,9 51,-32 7,-39 38,-66 73,-66 19,0 23,5 23,32 0,17 -7,39 -16,49 -18,20 -18,26 -8,157 l 7,92 h -42 -42 l 3,-66 c 2,-71 -5,-84 -53,-84 -14,0 -33,-8 -42,-18 -15,-16 -33,-18 -136,-18 -99,1 -122,4 -138,19 -11,9 -30,17 -44,17 -45,0 -53,14 -51,84 l 3,66 H 59 17 Z M 414,674 c 9,-3 30,-35 47,-70 28,-57 31,-69 21,-99 -7,-25 -7,-45 0,-70 10,-30 7,-42 -21,-99 -17,-35 -38,-67 -47,-70 -20,-8 -148,-8 -168,0 -9,3 -30,35 -47,70 -28,57 -31,69 -21,99 7,25 7,45 0,70 -10,30 -7,42 21,99 17,35 37,67 44,69 18,8 153,8 171,1 z"
       id="path3827" />
    <path
       d="M 261,614 230,588 V 470 352 l 31,-26 c 42,-35 96,-35 138,0 l 31,26 v 118 118 l -31,26 c -21,18 -42,26 -69,26 -27,0 -48,-8 -69,-26 z m 87,-56 c 18,-18 16,-162 -3,-178 -12,-10 -18,-10 -30,0 -30,25 -17,190 15,190 3,0 11,-5 18,-12 z"
       id="path3829" />
    <path
       d="m 140,904 c 0,-27 8,-44 33,-69 l 32,-32 h 125 125 l 32,32 c 25,25 33,42 33,69 0,34 -2,36 -35,36 -28,0 -36,-4 -41,-25 -14,-55 -74,-59 -74,-4 0,27 -2,29 -39,29 -37,0 -40,-2 -43,-32 -2,-28 -7,-33 -28,-33 -19,0 -29,8 -39,33 -12,27 -20,32 -48,32 -31,0 -33,-2 -33,-36 z"
       id="path3831" />
    <path
       d="M 173,105 C 148,80 140,63 140,36 140,2 142,0 173,0 c 28,0 36,5 48,33 20,46 63,46 67,0 3,-31 6,-33 42,-33 36,0 39,2 42,33 2,27 7,32 28,32 19,0 29,-8 39,-33 12,-27 20,-32 48,-32 31,0 33,2 33,36 0,27 -8,44 -33,69 l -32,32 H 330 205 Z"
       id="path3833" />
  </g>
</svg>
