<?xml version="1.0" encoding="UTF-8" standalone="no"?>
<!-- Created with Inkscape (http://www.inkscape.org/) -->

<svg
   width="210mm"
   height="297mm"
   viewBox="0 0 210 297"
   version="1.1"
   id="svg1819"
   sodipodi:docname="rear-rack.svg"
   inkscape:version="1.1.2 (1:1.1+202202050852+0a00cf5339)"
   xmlns:inkscape="http://www.inkscape.org/namespaces/inkscape"
   xmlns:sodipodi="http://sodipodi.sourceforge.net/DTD/sodipodi-0.dtd"
   xmlns="http://www.w3.org/2000/svg"
   xmlns:svg="http://www.w3.org/2000/svg">
  <sodipodi:namedview
     id="namedview1821"
     pagecolor="#ffffff"
     bordercolor="#666666"
     borderopacity="1.0"
     inkscape:pageshadow="2"
     inkscape:pageopacity="0.0"
     inkscape:pagecheckerboard="0"
     inkscape:document-units="mm"
     showgrid="false"
     inkscape:zoom="0.16913572"
     inkscape:cx="399.08779"
     inkscape:cy="561.67912"
     inkscape:window-width="1366"
     inkscape:window-height="703"
     inkscape:window-x="0"
     inkscape:window-y="0"
     inkscape:window-maximized="1"
     inkscape:current-layer="svg1819" />
  <defs
     id="defs1816" />
  <g
     inkscape:label="Layer 1"
     inkscape:groupmode="layer"
     id="layer1" />
  <g
     transform="matrix(0.10566763,0,0,-0.10580205,0.10566763,310.00001)"
     fill="#000000"
     stroke="none"
     id="g1989">
    <path
       d="m 0,2909 c 0,-20 1,-20 23,-6 15,10 41,14 73,12 48,-3 49,-4 49,-37 0,-29 -3,-33 -25,-30 -14,2 -45,4 -70,5 l -45,2 -3,-104 -3,-104 30,-28 c 48,-43 49,-71 8,-155 L 1,2392 v -438 c 0,-480 -1,-474 59,-474 14,0 31,-5 38,-12 15,-15 15,-65 1,-107 -21,-60 13,-110 52,-76 26,24 42,131 28,194 -11,54 -29,71 -71,71 -30,0 -48,18 -48,47 0,37 26,38 79,4 66,-43 70,-49 87,-130 13,-63 13,-76 -1,-116 -8,-25 -15,-57 -15,-70 0,-33 -10,-37 -85,-29 -58,6 -68,10 -78,31 -9,20 -7,35 7,74 24,68 6,110 -39,93 C 3,1449 0,1422 0,1294 v -153 l 25,25 c 20,20 32,24 54,19 39,-8 103,-9 128,-1 25,8 56,-18 51,-43 -4,-18 -31,-19 -128,-6 -49,6 -57,5 -75,-15 C 35,1098 33,1073 42,960 45,929 42,925 23,926 4,926 0,921 0,895 0,877 7,857 15,850 26,841 30,816 30,756 31,708 37,659 46,635 56,610 63,554 64,486 67,397 63,366 45,309 33,270 18,234 12,228 1,217 -5,140 5,140 c 2,0 16,5 30,12 22,10 29,8 53,-15 19,-18 39,-27 60,-27 34,0 41,-15 22,-51 C 155,32 138,35 105,70 89,87 66,100 54,100 26,100 0,65 0,28 V 0 l 113,1 h 112 l 43,87 c 23,48 42,97 42,109 0,13 -12,32 -30,45 -35,25 -40,58 -10,58 11,0 29,9 40,20 18,18 18,23 6,57 -7,21 -23,55 -35,75 -20,33 -22,45 -15,117 6,77 5,82 -20,116 -15,20 -38,43 -52,51 -22,15 -26,15 -50,-1 -31,-20 -33,-18 -41,28 -11,68 0,72 69,24 75,-52 121,-77 143,-77 28,0 177,68 203,92 13,13 42,27 65,33 35,8 42,14 45,38 3,23 -2,30 -31,42 -37,15 -108,100 -131,156 -7,18 -17,58 -21,88 -4,30 -13,68 -20,85 -22,54 -2,68 62,45 l 31,-10 -25,-25 c -18,-18 -23,-31 -18,-47 3,-12 14,-52 24,-90 16,-61 25,-74 94,-146 81,-83 94,-113 60,-143 -28,-25 -251,-138 -272,-138 -31,0 -69,-48 -76,-95 -6,-34 -2,-53 19,-97 35,-73 41,-130 22,-201 C 328,227 334,207 388,158 446,106 488,95 572,110 698,132 824,99 805,47 796,26 781,25 743,44 728,52 693,66 665,75 638,84 608,94 598,96 578,103 556,67 565,41 575,8 619,-1 750,2 l 125,3 3,46 c 2,38 -2,52 -23,78 -46,54 -185,79 -316,57 -34,-6 -53,-4 -77,8 -48,25 -55,47 -36,111 13,47 14,64 4,106 -12,50 -4,79 22,79 6,0 24,12 41,26 17,14 80,50 140,81 61,30 123,64 138,76 16,11 30,19 32,16 2,-2 11,-16 20,-32 16,-24 23,-27 72,-27 47,0 57,-3 71,-25 19,-28 25,-148 9,-163 -5,-6 -33,-13 -61,-17 -45,-6 -54,-4 -81,19 -38,32 -64,32 -134,4 -70,-28 -99,-54 -99,-89 0,-38 -34,-61 -78,-53 -60,11 -100,-54 -47,-78 19,-8 40,-7 95,6 38,10 75,14 82,10 6,-4 42,-7 78,-6 64,2 68,1 99,-33 17,-19 41,-35 52,-35 12,0 52,27 90,61 l 69,61 v 165 c 0,100 -4,172 -11,185 -8,14 -8,32 0,63 14,55 -1,100 -40,120 -28,15 -152,21 -184,9 -9,-4 -31,-30 -49,-58 -30,-46 -44,-57 -157,-115 -68,-35 -141,-77 -161,-93 -41,-32 -58,-30 -58,7 0,26 26,47 70,60 14,4 79,37 144,74 126,70 156,100 156,157 0,40 -47,112 -104,159 -57,46 -73,75 -82,146 -3,30 -13,64 -20,76 -8,12 -14,25 -14,28 0,11 36,4 58,-11 18,-13 22,-25 22,-72 0,-72 15,-102 64,-126 26,-13 42,-30 52,-55 45,-115 73,-136 169,-128 41,3 73,0 95,-9 18,-8 35,-14 39,-14 3,0 7,132 9,292 2,228 0,290 -9,281 -8,-8 -13,-49 -14,-112 0,-80 -4,-103 -18,-119 -26,-29 -37,-78 -37,-164 v -78 h -66 -65 l -21,46 c -14,32 -18,57 -14,83 18,115 25,190 20,218 -5,26 0,41 25,75 33,44 40,88 18,107 -8,6 -44,22 -81,36 -37,14 -86,35 -108,46 -33,17 -45,19 -65,10 -21,-10 -24,-17 -21,-49 l 3,-37 -78,-9 c -82,-10 -105,-2 -94,28 5,12 20,16 55,16 54,0 87,22 98,66 12,46 72,59 110,23 12,-11 45,-26 74,-34 29,-8 60,-21 71,-31 10,-9 33,-19 51,-23 23,-5 37,-16 47,-35 12,-26 10,-33 -18,-88 -27,-51 -31,-66 -25,-107 4,-35 2,-56 -11,-81 -18,-35 -32,-162 -21,-203 7,-30 40,-44 61,-27 11,9 15,35 15,94 0,68 4,89 25,129 23,43 25,51 14,86 -11,36 -9,44 15,85 30,51 34,102 11,147 -12,23 -13,38 -6,67 16,61 6,220 -16,272 -11,25 -23,61 -27,81 -11,58 -25,65 -109,50 -40,-8 -124,-17 -187,-21 -63,-5 -139,-12 -167,-16 -49,-6 -53,-5 -53,13 0,38 22,43 186,47 220,6 287,22 363,88 24,21 50,38 57,38 11,0 14,25 13,118 -1,121 -16,125 -18,5 l -1,-63 h -30 c -21,0 -41,-11 -69,-38 -22,-21 -57,-44 -78,-51 -21,-7 -124,-16 -229,-20 -244,-11 -253,-15 -267,-116 -2,-16 -7,-37 -11,-46 -4,-9 1,-25 11,-37 17,-21 22,-21 118,-12 55,6 147,13 205,16 58,3 120,10 138,15 18,6 39,9 46,6 7,-3 23,-36 35,-74 17,-54 21,-87 19,-157 -3,-92 -12,-110 -41,-81 -13,12 -14,21 -5,46 8,24 7,38 -7,69 -13,29 -16,51 -10,85 5,37 3,51 -11,66 -38,42 -62,16 -69,-76 -4,-51 -1,-74 10,-91 8,-13 15,-30 15,-39 0,-20 -39,-20 -69,1 -20,15 -23,22 -17,60 3,24 13,55 22,68 12,20 13,29 4,46 -10,18 -17,21 -43,15 -69,-14 -118,-18 -262,-19 l -150,-1 v -35 -35 h 178 c 176,0 177,0 177,-22 0,-13 -11,-30 -25,-39 -24,-15 -29,-15 -68,0 -53,20 -107,20 -154,1 -50,-21 -55,-20 -112,28 -53,44 -64,74 -36,97 35,29 58,76 71,143 18,93 18,125 -3,198 -16,56 -16,64 0,112 9,29 18,65 19,82 l 3,30 115,1 c 63,0 124,-4 135,-9 10,-5 44,-10 75,-9 72,1 90,-5 90,-28 0,-27 -36,-34 -102,-22 -74,15 -230,25 -251,16 -56,-21 -66,-210 -12,-230 9,-4 39,1 68,10 40,12 86,15 192,13 134,-2 143,-1 207,26 46,20 81,44 112,77 25,27 46,53 46,58 0,21 -40,42 -110,59 -65,16 -77,22 -89,48 -8,17 -19,33 -25,37 -6,4 -48,8 -93,8 -91,0 -123,16 -123,63 0,12 -7,31 -15,41 -9,11 -15,41 -15,70 0,41 -5,55 -28,81 -21,22 -32,48 -40,93 -13,72 -26,94 -55,90 -36,-5 -43,-32 -24,-86 20,-55 15,-80 -19,-88 -33,-9 -47,4 -38,35 3,14 10,59 13,99 l 7,72 h -38 c -38,0 -38,0 -39,-42 0,-24 -6,-68 -12,-98 -11,-51 -14,-55 -47,-63 -19,-5 -57,-18 -83,-30 -41,-18 -49,-19 -62,-6 -19,19 -27,61 -16,79 9,12 15,12 46,-3 20,-9 44,-17 54,-17 40,0 81,74 81,147 v 33 H 115 C 5,2930 0,2929 0,2909 Z m 453,-261 c 8,-12 7,-21 -3,-33 -13,-15 -27,-17 -107,-11 -75,6 -101,4 -142,-11 -38,-13 -53,-15 -62,-6 -21,21 -1,42 52,57 62,19 95,20 137,5 24,-8 37,-7 59,5 33,18 52,17 66,-6 z m 35,-142 c 2,-10 -1,-22 -7,-26 -7,-4 -69,-5 -139,-3 -150,5 -175,-4 -211,-83 -32,-67 -36,-134 -16,-232 19,-95 15,-122 -25,-186 -42,-65 -80,-61 -80,9 0,16 8,26 29,33 47,16 54,40 36,126 -26,126 -22,186 16,264 43,86 56,102 88,102 14,0 33,5 41,10 8,5 71,9 140,7 113,-2 125,-4 128,-21 z M 250,2381 c 0,-10 -7,-35 -15,-54 -19,-46 -19,-104 1,-180 21,-81 4,-185 -38,-233 -16,-18 -33,-46 -39,-62 -11,-33 -32,-46 -60,-37 -28,9 -23,32 15,69 43,44 78,117 84,175 2,25 -3,81 -12,123 -17,83 -11,149 20,196 18,27 44,29 44,3 z m 625,-90 c 9,-15 -34,-40 -105,-62 -60,-19 -73,-19 -161,-8 -73,9 -104,9 -129,0 -58,-20 -72,-15 -68,22 3,29 7,32 38,36 19,2 87,-3 150,-10 130,-15 135,-14 170,12 26,19 95,26 105,10 z M 234,1679 c 39,-33 80,-59 92,-59 12,0 41,9 65,20 53,24 97,26 106,4 9,-24 -11,-37 -73,-45 -78,-11 -99,-32 -90,-92 4,-25 16,-57 27,-71 19,-25 25,-26 116,-26 87,0 99,-2 129,-25 18,-14 54,-33 81,-43 l 48,-18 -2,-89 c -2,-95 -14,-123 -39,-90 -10,13 -12,33 -9,65 13,102 -84,160 -266,160 -51,0 -61,-3 -75,-24 -14,-23 -14,-30 1,-88 10,-35 23,-96 31,-137 7,-40 25,-93 40,-118 14,-24 24,-45 22,-47 -26,-16 -122,-38 -132,-30 -7,5 -32,24 -56,41 -33,26 -53,33 -86,33 -31,0 -46,5 -53,18 -16,29 2,46 40,38 19,-3 51,-9 72,-14 30,-5 45,-16 66,-47 30,-45 51,-53 75,-30 23,23 20,40 -14,78 -27,31 -29,38 -23,85 5,46 3,57 -22,92 l -28,41 20,72 c 19,70 19,74 1,162 -16,78 -23,94 -51,118 -57,50 -120,87 -147,87 -28,0 -50,16 -50,37 0,10 13,12 58,7 51,-6 64,-13 126,-65 z m 466,-204 c 14,-7 37,-15 53,-19 18,-4 27,-13 27,-27 0,-29 -25,-34 -73,-15 -60,23 -92,50 -84,70 7,18 27,16 77,-9 z M 226,891 c 62,-49 81,-54 141,-40 55,13 83,34 83,61 0,24 12,23 35,-2 17,-19 17,-21 1,-39 -27,-30 -153,-84 -180,-77 -13,3 -48,24 -77,46 -60,45 -66,46 -96,25 -26,-18 -38,-6 -27,28 15,50 56,49 120,-2 z M 948,758 c 28,-28 -6,-73 -38,-53 -6,4 -31,7 -55,7 -36,0 -43,2 -38,16 3,10 13,23 21,30 20,15 94,16 110,0 z M 165,655 c 29,-27 36,-40 31,-58 -3,-12 -8,-47 -12,-77 -5,-49 -3,-60 20,-93 33,-49 33,-63 -4,-82 -61,-32 -64,-72 -10,-126 33,-33 38,-43 30,-59 -15,-29 -28,-32 -35,-10 -4,12 -24,32 -46,46 -21,13 -39,30 -39,38 0,7 11,42 24,77 21,57 23,76 19,174 -2,61 -11,127 -19,148 -26,69 -14,75 41,22 z M 816,364 c 34,-27 50,-28 127,-9 23,6 27,4 27,-13 0,-17 -34,-50 -77,-75 -7,-4 -27,6 -47,24 -34,29 -40,31 -103,28 -63,-4 -68,-2 -68,16 0,13 12,26 35,37 47,24 65,23 106,-8 z"
       id="path1965" />
    <path
       d="m 459,2917 c 25,-12 35,-33 46,-99 3,-20 21,-60 40,-89 30,-43 35,-59 35,-109 0,-47 4,-62 24,-83 30,-32 65,-42 114,-32 82,16 95,13 104,-25 12,-45 22,-54 85,-74 46,-15 55,-16 80,-2 38,19 53,54 53,126 0,55 -2,60 -30,77 -36,21 -40,35 -37,125 2,54 -2,72 -19,95 -26,34 -83,42 -139,19 -43,-18 -78,-20 -105,-6 -19,10 -43,67 -31,74 4,3 26,-4 50,-15 57,-25 84,-24 118,6 l 28,24 -121,1 H 632 l -15,-31 c -19,-41 -13,-62 34,-104 36,-32 44,-35 100,-35 34,0 73,7 89,15 50,26 63,11 56,-59 -8,-80 7,-130 44,-153 17,-9 33,-26 36,-36 6,-20 -21,-57 -41,-57 -20,0 -45,35 -45,63 0,15 -10,37 -21,48 -18,18 -29,20 -68,15 -139,-20 -138,-20 -146,4 -4,12 -4,25 0,28 4,4 42,7 85,8 56,1 86,6 104,18 32,20 33,50 5,70 -19,13 -25,13 -50,0 -32,-16 -121,-19 -149,-4 -29,16 -69,90 -81,153 l -12,57 h -61 c -55,0 -59,-2 -37,-13 z"
       id="path1967" />
    <path
       d="m 920,2919 c 0,-26 22,-49 48,-49 51,0 72,11 72,36 0,23 -3,24 -60,24 -36,0 -60,-4 -60,-11 z"
       id="path1969" />
    <path
       d="m 1020,2814 c -14,-36 -12,-104 5,-139 12,-28 13,-23 14,68 1,53 -1,97 -4,97 -3,0 -10,-12 -15,-26 z"
       id="path1971" />
    <path
       d="m 1,2535 c 1,-46 1,-48 11,-22 7,20 7,35 0,50 -9,18 -11,14 -11,-28 z"
       id="path1973" />
    <path
       d="m 956,2073 c -11,-11 -6,-58 9,-77 8,-11 15,-37 15,-57 0,-28 6,-42 22,-53 12,-9 26,-16 30,-16 5,0 8,46 8,103 v 102 l -39,2 c -21,1 -41,-1 -45,-4 z"
       id="path1975" />
    <path
       d="m 1032,1800 c 0,-14 2,-19 5,-12 2,6 2,18 0,25 -3,6 -5,1 -5,-13 z"
       id="path1977" />
    <path
       d="m 1028,1724 c -7,-6 0,-185 7,-192 3,-3 5,40 5,96 0,100 -1,108 -12,96 z"
       id="path1979" />
    <path
       d="m 2,460 1,-155 9,124 c 7,81 6,135 0,155 C 5,607 2,576 2,460 Z"
       id="path1981" />
    <path
       d="M 685,574 C 541,503 524,492 503,460 468,410 463,363 488,337 c 20,-20 22,-20 41,-3 10,9 22,32 25,50 4,18 14,40 24,49 26,23 192,97 218,97 13,0 39,-13 57,-30 19,-16 44,-30 55,-30 29,0 54,38 41,61 -12,24 -129,79 -165,78 -16,0 -60,-16 -99,-35 z"
       id="path1983" />
    <path
       d="M 989,186 C 941,151 910,100 910,57 910,6 918,0 981,0 c 50,0 59,3 59,18 0,13 -8,18 -27,17 -24,0 -28,4 -25,25 1,13 14,36 28,51 20,21 25,35 22,67 l -3,41 z"
       id="path1985" />
    <path
       d="m 333,129 c -14,-5 -23,-17 -23,-29 0,-11 -9,-39 -20,-60 L 270,0 h 35 c 19,0 44,5 54,12 15,9 25,9 46,0 31,-14 145,-16 145,-3 0,17 -48,48 -95,61 -27,8 -53,23 -61,36 -19,28 -33,34 -61,23 z"
       id="path1987" />
  </g>
</svg>
