<?xml version="1.0" encoding="UTF-8" standalone="no"?>
<!-- Created with Inkscape (http://www.inkscape.org/) -->

<svg
   width="210mm"
   height="297mm"
   viewBox="0 0 210 297"
   version="1.1"
   id="svg1432"
   sodipodi:docname="seat-stay-tube.svg"
   inkscape:version="1.1.2 (1:1.1+202202050852+0a00cf5339)"
   xmlns:inkscape="http://www.inkscape.org/namespaces/inkscape"
   xmlns:sodipodi="http://sodipodi.sourceforge.net/DTD/sodipodi-0.dtd"
   xmlns="http://www.w3.org/2000/svg"
   xmlns:svg="http://www.w3.org/2000/svg">
  <sodipodi:namedview
     id="namedview1434"
     pagecolor="#ffffff"
     bordercolor="#666666"
     borderopacity="1.0"
     inkscape:pageshadow="2"
     inkscape:pageopacity="0.0"
     inkscape:pagecheckerboard="0"
     inkscape:document-units="mm"
     showgrid="false"
     inkscape:zoom="0.16913572"
     inkscape:cx="399.08779"
     inkscape:cy="561.67912"
     inkscape:window-width="1366"
     inkscape:window-height="703"
     inkscape:window-x="0"
     inkscape:window-y="0"
     inkscape:window-maximized="1"
     inkscape:current-layer="svg1432" />
  <defs
     id="defs1429" />
  <g
     inkscape:label="Layer 1"
     inkscape:groupmode="layer"
     id="layer1" />
  <g
     transform="matrix(0.10615051,0,0,-0.11142857,0,390)"
     fill="#000000"
     stroke="none"
     id="g1608">
    <path
       d="m 77,3482 c 6,-25 -21,-45 -52,-40 l -25,5 v -82 c 0,-93 24,-226 48,-268 14,-23 15,-31 3,-60 C 11,2940 2,2877 2,2675 1,2521 5,2466 16,2434 c 14,-37 14,-45 0,-79 -24,-57 -19,-109 19,-206 19,-49 35,-91 35,-94 0,-3 -10,-5 -22,-5 -47,0 -50,-9 -44,-131 3,-63 5,-125 5,-139 -6,-155 -1,-227 21,-278 20,-45 21,-55 9,-63 -8,-5 -20,-9 -27,-9 -9,0 -12,-12 -10,-37 4,-48 32,-55 76,-19 36,32 70,33 148,5 41,-14 71,-18 99,-14 61,10 108,10 127,1 16,-7 18,-3 18,33 0,23 -4,41 -9,41 -4,0 -10,30 -13,68 -7,88 -26,124 -83,151 -44,21 -45,22 -45,69 0,132 -20,154 -114,127 -50,-15 -60,-22 -72,-51 -17,-39 -19,-172 -3,-227 11,-39 10,-39 115,-82 48,-19 83,-17 98,7 15,25 -18,57 -68,65 -64,10 -86,40 -86,116 0,70 16,104 44,94 14,-6 16,-15 11,-52 -11,-73 -2,-92 60,-120 55,-24 56,-25 69,-101 10,-64 -42,-83 -142,-51 -26,9 -63,20 -82,24 -30,7 -37,16 -53,58 -20,54 -26,162 -13,232 6,30 4,53 -9,86 -17,44 -17,71 1,155 3,17 8,32 10,32 3,0 27,-11 54,-25 64,-33 65,-53 4,-57 -54,-3 -77,-26 -58,-55 8,-13 23,-18 55,-16 94,3 149,26 149,62 -1,26 -53,94 -90,118 -19,12 -44,29 -56,37 -11,8 -33,49 -49,92 -28,77 -28,78 -12,125 22,62 21,97 -4,154 -19,44 -20,54 -9,103 8,35 10,88 5,155 -8,114 11,227 45,270 20,25 98,47 164,47 43,0 79,27 73,54 -28,116 -49,191 -61,215 -23,44 -81,83 -119,79 -29,-3 -34,-8 -51,-56 -18,-52 -18,-55 -1,-115 10,-34 27,-71 37,-83 17,-19 17,-22 2,-34 -23,-20 -46,-1 -61,50 -18,63 -40,199 -34,209 3,4 20,15 37,24 19,10 36,29 43,48 18,53 15,59 -33,59 -38,0 -43,-3 -39,-18 z m 178,-272 c 19,-76 15,-90 -20,-90 -22,0 -23,3 -18,35 3,22 0,47 -11,69 -27,57 -18,100 15,70 9,-8 25,-46 34,-84 z"
       id="path1578" />
    <path
       d="m 190,3491 c 0,-17 53,-72 92,-98 46,-28 61,-60 89,-182 26,-112 32,-163 21,-179 -6,-9 -36,-14 -88,-16 -130,-4 -163,-33 -186,-163 -18,-109 9,-185 61,-168 28,9 35,39 17,74 -13,23 -14,40 -6,81 17,89 28,99 120,103 l 45,2 v -160 c 0,-88 -2,-166 -4,-172 -4,-17 -41,-16 -66,0 -30,20 -121,48 -138,41 -34,-13 -49,-108 -26,-172 17,-50 52,-66 157,-70 89,-4 92,-5 92,-28 0,-32 -39,-41 -104,-25 -125,30 -133,27 -142,-56 -5,-38 -1,-61 16,-100 25,-58 43,-77 81,-87 17,-3 31,-17 39,-36 7,-17 26,-40 42,-52 27,-19 29,-24 24,-62 -4,-26 -1,-60 9,-91 9,-28 20,-76 25,-108 10,-67 23,-87 56,-87 12,0 30,-7 38,-16 15,-14 16,-12 16,25 0,28 -7,48 -20,61 -11,11 -20,33 -20,49 0,16 -7,48 -15,71 -8,23 -15,61 -15,85 0,35 6,47 35,74 30,27 35,38 35,74 0,24 -10,62 -22,87 -23,44 -24,45 -79,48 -48,2 -61,-1 -87,-23 -16,-14 -35,-25 -40,-25 -18,0 -42,42 -42,72 0,31 12,34 57,17 42,-16 128,-2 160,26 24,20 27,30 28,85 0,54 -3,64 -25,82 -21,17 -33,19 -92,13 -84,-9 -135,6 -144,42 -11,41 10,50 55,25 28,-16 55,-22 100,-22 85,0 93,14 90,157 -3,156 8,282 27,311 20,30 15,108 -14,232 -30,127 -48,173 -77,195 -15,11 -40,32 -57,48 -23,21 -39,27 -74,27 -24,0 -44,-4 -44,-9 z M 384,2147 c 18,-26 11,-67 -12,-67 -21,0 -52,29 -52,50 0,19 19,40 37,40 7,0 19,-10 27,-23 z"
       id="path1580" />
    <path
       d="m 360,3491 c 31,-17 77,-20 96,-6 17,13 12,14 -46,14 -40,0 -59,-3 -50,-8 z"
       id="path1582" />
    <path
       d="m 430,3440 c -26,-26 -26,-31 10,-68 l 30,-32 v 55 c 0,62 -11,74 -40,45 z"
       id="path1584" />
    <path
       d="m 2,3060 c 0,-14 2,-19 5,-12 2,6 2,18 0,25 -3,6 -5,1 -5,-13 z"
       id="path1586" />
    <path
       d="m 252,2903 c -17,-34 -21,-195 -6,-225 17,-32 44,-36 68,-10 13,16 14,24 5,51 -7,21 -9,59 -5,101 3,38 3,76 0,84 -8,21 -51,20 -62,-1 z"
       id="path1588" />
    <path
       d="m 463,2535 c 0,-33 2,-45 4,-27 2,18 2,45 0,60 -2,15 -4,0 -4,-33 z"
       id="path1590" />
    <path
       d="m 461,2274 c 0,-11 3,-14 6,-6 3,7 2,16 -1,19 -3,4 -6,-2 -5,-13 z"
       id="path1592" />
    <path
       d="m 456,1983 c -9,-55 -7,-106 4,-123 7,-10 10,12 10,73 0,48 -2,87 -4,87 -2,0 -6,-17 -10,-37 z"
       id="path1594" />
    <path
       d="m 102,1329 c -22,-14 -43,-20 -67,-17 -34,4 -35,3 -35,-34 0,-35 2,-37 37,-44 28,-5 46,-2 77,15 48,25 67,26 106,6 22,-12 57,-15 140,-13 l 110,3 v 37 c 0,32 -4,39 -26,44 -15,4 -57,1 -94,-5 -63,-12 -72,-11 -116,8 -59,26 -90,26 -132,0 z"
       id="path1596" />
    <path
       d="m 126,1199 c -37,-20 -50,-20 -104,-4 -20,7 -22,4 -22,-28 0,-26 6,-39 26,-52 30,-19 27,-50 -8,-99 C -11,976 -3,881 35,816 61,771 62,768 49,702 42,663 37,546 36,424 35,237 33,210 18,193 8,182 0,159 0,142 c 0,-29 1,-31 34,-25 25,4 44,0 69,-16 44,-27 81,-27 147,1 49,20 57,21 126,9 41,-7 78,-9 84,-6 5,3 10,22 10,41 0,33 -1,34 -37,34 -21,0 -56,5 -79,10 -32,7 -56,5 -110,-10 -38,-11 -78,-20 -90,-20 -31,0 -57,34 -48,62 4,13 8,115 9,228 1,113 5,237 9,275 8,63 6,76 -14,115 -12,25 -34,55 -48,68 l -27,23 27,22 c 31,26 58,84 58,126 0,32 30,61 63,61 31,0 29,-25 -7,-81 -45,-67 -60,-111 -52,-153 20,-108 189,-93 210,18 9,48 41,84 81,92 41,7 58,25 53,56 -8,59 -147,7 -181,-67 -36,-80 -43,-90 -62,-90 -34,0 -30,45 9,95 19,25 36,56 38,69 3,22 12,27 72,42 39,10 82,15 98,12 27,-5 28,-4 28,37 v 42 l -52,-5 c -29,-3 -74,-9 -100,-13 -33,-5 -59,-2 -88,10 -52,20 -57,20 -104,-5 z"
       id="path1598" />
    <path
       d="m 428,974 c -39,-25 -61,-58 -72,-109 -5,-24 1,-44 24,-88 34,-64 36,-79 15,-97 -21,-17 -45,4 -45,39 -1,70 -28,91 -108,83 -69,-7 -78,-26 -86,-192 -7,-135 -6,-143 15,-177 16,-25 19,-38 11,-41 -6,-2 -22,-12 -34,-22 -22,-18 -22,-18 -4,-52 15,-29 17,-41 8,-66 -8,-23 -7,-35 4,-51 22,-31 48,-26 67,14 19,40 24,41 131,18 l 79,-17 18,23 c 16,20 19,41 19,151 0,162 -3,167 -113,181 -52,6 -84,6 -96,-1 -11,-5 -22,-10 -25,-10 -3,0 -6,33 -6,74 0,52 4,77 15,86 22,19 35,3 35,-44 0,-24 6,-48 13,-54 20,-16 146,-26 162,-12 24,20 20,157 -5,195 -25,38 -25,60 1,86 15,15 19,30 17,63 l -3,43 z M 330,496 c 35,7 70,-11 70,-36 0,-28 -8,-29 -85,-15 -66,13 -95,31 -95,60 0,22 11,22 47,4 21,-11 46,-16 63,-13 z M 263,379 c 21,-5 56,-11 79,-12 49,-2 72,-27 47,-52 -12,-12 -22,-13 -45,-5 -16,5 -47,11 -68,14 -39,4 -66,26 -66,53 0,16 4,16 53,2 z"
       id="path1600" />
    <path
       d="m 3,710 c 0,-30 2,-43 4,-27 2,15 2,39 0,55 -2,15 -4,2 -4,-28 z"
       id="path1602" />
    <path
       d="M 279,71 C 227,55 191,29 190,8 190,3 253,0 330,0 h 140 v 31 c 0,28 -2,30 -28,24 -15,-3 -47,1 -71,10 -48,16 -54,17 -92,6 z"
       id="path1604" />
    <path
       d="M 0,35 V 0 h 80 c 44,0 80,4 80,9 0,5 -14,21 -31,35 C 105,64 88,70 49,70 H 0 Z"
       id="path1606" />
  </g>
</svg>
