<?xml version="1.0" encoding="UTF-8" standalone="no"?>
<!-- Created with Inkscape (http://www.inkscape.org/) -->

<svg
   width="210mm"
   height="297mm"
   viewBox="0 0 210 297"
   version="1.1"
   id="svg570"
   sodipodi:docname="seat-tube.svg"
   inkscape:version="1.1.2 (1:1.1+202202050852+0a00cf5339)"
   xmlns:inkscape="http://www.inkscape.org/namespaces/inkscape"
   xmlns:sodipodi="http://sodipodi.sourceforge.net/DTD/sodipodi-0.dtd"
   xmlns="http://www.w3.org/2000/svg"
   xmlns:svg="http://www.w3.org/2000/svg">
  <sodipodi:namedview
     id="namedview572"
     pagecolor="#ffffff"
     bordercolor="#666666"
     borderopacity="1.0"
     inkscape:pageshadow="2"
     inkscape:pageopacity="0.0"
     inkscape:pagecheckerboard="0"
     inkscape:document-units="mm"
     showgrid="false"
     inkscape:zoom="0.23919402"
     inkscape:cx="395.07676"
     inkscape:cy="648.0095"
     inkscape:window-width="1366"
     inkscape:window-height="703"
     inkscape:window-x="0"
     inkscape:window-y="0"
     inkscape:window-maximized="1"
     inkscape:current-layer="svg570"
     showguides="false" />
  <defs
     id="defs567" />
  <g
     inkscape:label="Layer 1"
     inkscape:groupmode="layer"
     id="layer1" />
  <g
     transform="matrix(0.10538642,0,0,-0.10571429,0.21077284,370.00002)"
     fill="#000000"
     stroke="none"
     id="g1217">
    <path
       d="m 75,3491 c 44,-7 43,-5 32,-72 -10,-60 4,-95 47,-116 30,-14 41,-15 76,-4 35,10 45,10 66,-4 15,-9 24,-25 24,-40 0,-21 -5,-25 -27,-25 -16,1 -39,7 -53,15 -41,24 -82,18 -119,-16 -28,-26 -36,-28 -47,-17 -11,10 -11,22 -4,48 6,19 10,47 10,63 0,36 -38,115 -61,128 -18,9 -19,3 -19,-141 0,-148 0,-151 26,-176 30,-31 60,-27 115,17 44,35 44,35 103,8 43,-19 49,-19 78,-5 43,22 62,20 95,-8 15,-13 46,-32 68,-42 50,-24 70,-68 40,-90 -30,-22 -43,-17 -55,21 -19,59 -47,70 -185,72 -138,2 -174,-6 -210,-48 -31,-38 -33,-86 -4,-123 18,-23 20,-35 14,-85 -6,-52 -4,-61 12,-69 10,-6 27,-6 41,-1 18,7 22,16 22,52 0,27 6,49 15,57 20,17 102,25 117,12 7,-5 33,-15 58,-21 25,-7 69,-24 98,-38 48,-23 60,-25 130,-19 62,5 82,3 100,-10 52,-36 2,-72 -78,-55 -25,5 -65,12 -89,16 -23,3 -60,15 -81,27 -49,28 -76,18 -121,-49 -32,-45 -34,-54 -35,-136 -1,-77 1,-89 18,-98 21,-11 58,-3 58,12 0,13 85,49 115,49 13,0 40,-10 60,-21 42,-25 92,-26 155,-4 89,31 150,78 150,114 0,5 -12,24 -27,42 -21,24 -27,43 -28,81 -1,57 -18,75 -93,104 -38,15 -50,15 -98,4 -48,-12 -59,-11 -89,3 -34,16 -45,39 -26,51 5,4 22,-1 38,-11 28,-16 31,-15 74,10 25,15 53,27 62,27 9,0 32,-16 51,-35 24,-24 45,-35 64,-35 40,0 51,-17 60,-94 5,-37 14,-72 20,-78 9,-9 12,32 12,176 v 189 l -36,39 c -24,27 -33,45 -29,56 11,26 18,108 12,134 -4,13 -27,50 -52,82 -25,32 -45,65 -45,72 0,10 -13,14 -41,14 -37,0 -40,-2 -34,-22 8,-25 42,-84 81,-138 22,-30 24,-42 19,-80 -8,-54 -29,-90 -53,-90 -42,0 -55,-45 -22,-75 19,-18 21,-17 56,1 l 35,19 25,-28 c 31,-36 34,-97 5,-97 -11,0 -28,15 -40,36 -21,35 -22,36 -70,29 -53,-7 -48,-11 -66,54 -4,12 2,27 13,38 11,10 32,41 47,70 34,65 29,91 -30,162 -24,30 -46,69 -50,87 -5,31 -9,34 -40,34 -32,0 -35,-3 -35,-29 0,-43 13,-70 59,-126 41,-49 50,-78 31,-90 -6,-4 -19,-24 -30,-46 -11,-21 -26,-39 -33,-39 -29,0 -119,73 -134,108 -8,21 -28,51 -43,67 -24,25 -29,40 -32,92 l -3,63 h -38 -39 l 4,-56 c 3,-61 -12,-84 -47,-70 -18,6 -18,42 1,104 6,22 5,22 -77,21 -61,-1 -73,-3 -44,-8 z m 210,-464 c 11,0 37,2 58,4 42,3 57,-10 57,-48 0,-34 -16,-36 -76,-12 -53,22 -58,23 -113,8 -66,-17 -81,-15 -81,11 0,33 39,52 90,44 25,-4 54,-7 65,-7 z m 155,-312 c 14,-8 39,-14 56,-15 17,0 54,-7 83,-16 47,-14 57,-14 96,0 36,12 46,12 55,1 16,-19 -11,-41 -76,-62 l -55,-17 -55,27 c -60,30 -106,34 -144,12 -14,-8 -31,-14 -37,-15 -18,0 -16,51 3,78 17,25 38,27 74,7 z"
       id="path1183" />
    <path
       d="m 376,3469 c -11,-55 -7,-64 55,-158 62,-93 86,-110 117,-79 19,19 15,29 -44,107 -51,68 -55,79 -52,118 l 3,43 h -36 c -33,0 -37,-3 -43,-31 z"
       id="path1185" />
    <path
       d="m 750,3493 c 1,-14 25,-49 63,-93 l 37,-44 v 53 c 0,73 -12,91 -60,91 -22,0 -40,-3 -40,-7 z"
       id="path1187" />
    <path
       d="m 843,3230 c 0,-25 2,-35 4,-22 2,12 2,32 0,45 -2,12 -4,2 -4,-23 z"
       id="path1189" />
    <path
       d="m 1,3035 c -1,-42 2,-56 9,-45 12,18 12,58 0,85 -6,14 -9,3 -9,-40 z"
       id="path1191" />
    <path
       d="m 0,2841 c 0,-92 3,-118 16,-132 13,-15 14,-24 5,-50 -16,-46 -14,-64 13,-122 14,-29 28,-75 31,-103 6,-44 3,-61 -26,-125 C 13,2249 6,2218 2,2149 l -4,-86 68,1 c 96,1 120,-8 149,-54 35,-56 57,-65 107,-45 36,14 43,14 56,2 17,-18 8,-53 -17,-67 -14,-7 -26,-3 -50,14 -28,21 -36,22 -63,12 -27,-9 -32,-9 -42,8 -45,75 -89,99 -160,90 l -46,-7 v -79 c 0,-65 4,-84 21,-108 19,-25 21,-38 17,-112 -3,-52 -11,-96 -22,-117 -15,-29 -17,-52 -13,-175 13,-320 30,-355 200,-390 95,-20 145,-18 161,7 22,34 -4,51 -90,59 -43,4 -92,11 -108,16 -43,12 -67,50 -69,108 l -2,49 99,3 c 55,1 106,8 113,14 17,14 16,33 -3,52 -18,19 -146,22 -190,6 -32,-12 -59,6 -49,32 8,20 114,30 154,15 62,-23 83,19 40,83 -16,23 -31,58 -35,77 -6,30 -2,39 25,67 38,39 39,59 6,98 -21,25 -25,39 -23,77 3,42 5,46 28,46 24,0 25,-3 25,-53 0,-44 4,-57 24,-73 34,-28 69,-34 120,-20 46,12 46,12 73,-20 24,-28 31,-31 63,-26 l 36,6 -6,-57 c -4,-31 -11,-76 -16,-99 -7,-34 -5,-53 13,-98 21,-55 21,-56 3,-109 l -18,-54 30,-48 c 17,-27 36,-66 42,-86 17,-51 35,-63 94,-60 43,2 55,-2 80,-25 l 29,-28 -7,95 c -4,52 -14,108 -22,124 -16,30 -38,213 -36,301 1,30 12,76 27,113 37,87 34,125 -14,203 -72,115 -77,127 -57,147 25,25 50,4 59,-49 4,-24 17,-52 28,-63 l 20,-20 v 89 c 0,90 0,90 -30,107 -42,24 -46,41 -20,99 12,28 26,83 32,123 15,101 18,288 6,304 -19,23 -56,14 -73,-18 -18,-34 -58,-49 -156,-57 -49,-4 -73,-1 -97,11 -41,21 -87,20 -138,-3 -67,-30 -89,-80 -64,-145 7,-19 5,-35 -8,-64 -31,-68 -42,-43 -42,94 0,107 -3,131 -21,166 -17,33 -20,52 -15,92 11,92 24,123 61,146 34,21 42,41 29,74 -7,19 -43,20 -64,3 -55,-44 -77,-86 -94,-173 l -17,-89 24,-65 c 20,-56 23,-81 22,-175 l -2,-110 -39,-6 c -21,-4 -41,-5 -43,-3 -2,2 6,27 19,56 29,67 25,180 -8,245 -25,49 -27,87 -7,123 20,34 20,33 -25,85 -33,38 -40,54 -40,88 -1,23 -9,58 -20,77 l -19,35 z m 795,-411 c 3,-10 1,-28 -5,-40 -9,-16 -16,-19 -38,-13 -15,4 -38,6 -52,5 -14,-1 -91,-4 -172,-5 -157,-3 -171,1 -142,42 18,26 63,28 125,5 49,-17 137,-12 199,11 53,19 78,18 85,-5 z m -46,-139 c 8,-13 6,-34 -5,-72 -9,-30 -23,-81 -32,-115 -9,-33 -26,-74 -36,-90 -31,-46 -24,-84 34,-178 59,-96 60,-111 20,-221 -18,-49 -21,-73 -16,-130 3,-38 8,-108 11,-155 4,-49 15,-107 28,-138 15,-38 18,-55 10,-63 -17,-17 -42,-3 -53,28 -6,16 -19,44 -30,64 -19,34 -19,39 -4,81 14,43 14,49 -6,104 -18,53 -19,66 -9,134 6,41 20,94 30,117 10,23 19,52 19,63 0,12 -21,59 -47,106 -54,97 -77,112 -134,83 -44,-22 -55,-35 -72,-85 -16,-44 -51,-68 -79,-53 -28,15 -22,31 31,76 60,52 71,86 42,140 -10,21 -24,50 -30,66 -13,33 -49,37 -76,7 -22,-24 -65,-27 -65,-4 0,8 17,22 38,31 20,8 52,29 70,45 19,16 39,27 45,25 7,-2 14,-26 17,-53 7,-58 30,-104 66,-133 32,-25 47,-26 79,-5 26,17 49,67 60,131 3,23 20,62 37,87 32,49 33,72 6,90 -43,27 -92,-52 -123,-197 -4,-19 -11,-27 -22,-25 -19,3 -30,35 -32,85 -1,28 4,35 35,48 30,12 35,19 32,41 -4,38 -31,53 -60,35 -13,-8 -49,-18 -80,-22 -42,-5 -67,-15 -92,-35 -19,-16 -55,-42 -81,-58 -45,-27 -49,-28 -98,-17 -29,6 -63,12 -77,13 -21,3 -25,8 -23,32 3,39 9,43 36,19 18,-17 34,-20 87,-19 73,1 90,8 90,37 0,15 7,19 34,19 29,0 37,6 56,36 l 21,37 97,-6 c 53,-3 115,-2 137,2 71,15 103,13 114,-8 z M 117,1928 c 36,-40 44,-65 37,-118 -5,-40 -2,-57 15,-91 l 22,-41 -31,-46 c -36,-54 -36,-56 -10,-105 23,-43 18,-49 -48,-51 -48,-1 -52,19 -18,94 23,51 26,71 26,171 v 114 l -41,36 c -25,21 -39,40 -35,47 12,20 61,14 83,-10 z m 484,-144 c 31,-55 36,-86 15,-103 -11,-10 -16,-8 -20,7 -4,11 -22,33 -41,51 -39,35 -42,47 -19,79 21,31 33,25 65,-34 z"
       id="path1193" />
    <path
       d="m 0,2408 c 0,-44 3,-59 10,-48 13,20 13,97 0,105 -6,4 -10,-17 -10,-57 z"
       id="path1195" />
    <path
       d="m 834,2114 c -4,-14 -2,-30 5,-37 8,-8 11,-1 11,26 0,43 -7,48 -16,11 z"
       id="path1197" />
    <path
       d="m 347,1648 c -43,-12 -72,-47 -64,-81 2,-12 17,-69 32,-126 28,-105 30,-180 6,-204 -15,-15 -70,-14 -120,3 -39,13 -43,12 -63,-7 -44,-45 2,-74 127,-78 44,-2 83,-4 87,-4 10,-1 58,-88 58,-104 0,-19 -57,-69 -96,-85 -27,-12 -36,-10 -89,18 -44,23 -65,29 -91,24 -29,-5 -38,-1 -83,41 l -51,48 v -48 C 0,1016 6,990 15,980 26,968 32,930 35,839 46,599 41,481 18,399 -8,306 2,277 70,242 c 41,-22 54,-23 142,-18 104,5 126,-3 113,-43 -8,-25 27,-59 69,-66 17,-3 54,1 81,9 117,37 170,14 154,-67 -4,-23 -8,-45 -9,-49 0,-5 18,-8 39,-8 h 39 l 7,70 c 9,90 -4,113 -77,135 -65,19 -94,19 -148,0 -58,-20 -80,-19 -80,4 0,47 149,67 240,31 70,-27 115,-26 145,5 26,25 27,31 30,100 0,22 10,70 20,108 25,89 19,95 -101,102 -50,2 -98,7 -107,11 -23,9 -107,120 -107,142 0,9 34,46 76,81 42,36 84,82 95,103 15,30 25,39 42,36 18,-2 23,-11 25,-41 4,-48 -11,-67 -54,-67 -35,0 -64,-28 -64,-62 0,-14 -8,-18 -34,-18 -26,0 -36,-5 -41,-20 -9,-30 8,-52 69,-89 63,-38 172,-55 201,-31 20,17 20,121 -1,161 -13,26 -14,38 -3,79 25,98 -19,163 -109,164 -42,1 -48,-2 -67,-34 C 644,951 591,892 536,838 460,764 430,740 402,735 332,722 284,685 279,640 c -2,-14 0,-63 5,-109 7,-74 6,-92 -15,-158 -27,-83 -37,-90 -117,-79 -67,9 -80,25 -63,78 20,65 34,333 21,387 -13,51 -3,69 29,52 33,-18 43,-46 31,-89 -5,-20 -10,-95 -10,-165 0,-96 -4,-135 -16,-158 -29,-58 4,-112 45,-74 33,29 45,90 46,242 2,153 6,167 54,176 96,20 224,109 297,208 52,71 50,106 -10,202 -49,79 -56,114 -31,157 21,37 18,61 -12,104 -24,36 -25,42 -13,70 7,17 15,48 17,69 7,49 -14,72 -80,92 -57,17 -57,17 -110,3 z m 103,-83 c 11,-13 10,-22 -3,-51 -22,-46 -22,-56 9,-115 26,-49 26,-52 10,-85 -29,-61 -23,-85 52,-206 32,-53 34,-60 22,-88 -23,-55 -117,-140 -196,-176 -40,-19 -79,-34 -87,-34 -8,0 -27,16 -42,36 -24,32 -31,35 -68,32 -39,-3 -42,-1 -42,22 0,38 43,38 110,0 67,-38 88,-36 175,20 64,42 100,89 100,132 0,15 -20,56 -46,94 l -45,69 12,62 c 13,65 11,79 -37,231 -7,24 -11,49 -7,57 7,20 67,19 83,0 z M 770,731 c 15,-28 12,-58 -6,-65 -19,-7 -85,19 -102,42 -11,14 -7,18 30,28 62,16 66,16 78,-5 z M 458,651 c 9,-10 37,-46 61,-79 51,-70 72,-81 167,-90 60,-6 69,-10 72,-28 4,-27 -16,-35 -64,-24 -22,5 -65,14 -97,20 -50,10 -62,17 -87,52 -16,22 -34,55 -40,74 -13,38 -50,55 -75,34 -22,-19 -18,-39 20,-100 46,-72 46,-82 -7,-78 l -43,3 -7,94 c -9,116 -4,125 75,140 4,0 15,-7 25,-18 z M 633,368 c 108,-14 109,-14 105,-40 -2,-19 -9,-23 -38,-22 -19,1 -60,9 -90,18 -66,20 -158,13 -204,-15 -33,-20 -71,-25 -80,-10 -4,5 -2,21 4,36 11,28 14,29 92,10 24,-7 28,-4 39,33 l 12,41 39,-20 c 21,-11 76,-25 121,-31 z"
       id="path1199" />
    <path
       d="m 835,1528 c -3,-18 -1,-46 4,-63 8,-26 9,-22 10,33 1,68 -5,81 -14,30 z"
       id="path1201" />
    <path
       d="m 843,1370 c 0,-25 2,-35 4,-22 2,12 2,32 0,45 -2,12 -4,2 -4,-23 z"
       id="path1203" />
    <path
       d="m 0,181 c 0,-28 5,-40 18,-44 9,-3 37,-13 62,-22 61,-23 186,-22 212,1 41,38 -1,85 -58,64 C 192,163 138,169 82,195 8,229 0,228 0,181 Z"
       id="path1205" />
    <path
       d="M 782,197 C 756,170 736,81 744,34 750,3 754,0 788,0 h 37 l -3,65 c -3,52 -1,66 12,71 11,4 16,19 16,45 0,34 -3,39 -23,39 -13,0 -33,-10 -45,-23 z"
       id="path1207" />
    <path
       d="M 516,108 C 507,96 500,66 500,43 500,1 501,0 535,0 c 31,0 35,4 44,36 11,41 1,78 -24,88 -23,8 -22,9 -39,-16 z"
       id="path1209" />
    <path
       d="M 271,62 C 229,20 230,0 276,0 c 19,0 45,5 56,11 14,8 23,8 31,0 6,-6 30,-11 54,-11 39,0 43,2 43,25 0,33 -33,53 -102,61 -54,6 -58,5 -87,-24 z"
       id="path1211" />
    <path
       d="M 4,67 C 1,58 0,41 2,28 5,6 9,5 107,2 164,1 210,3 210,7 210,34 177,58 133,63 106,66 68,72 48,76 19,81 9,79 4,67 Z"
       id="path1213" />
    <path
       d="m 842,40 c 0,-14 2,-19 5,-12 2,6 2,18 0,25 -3,6 -5,1 -5,-13 z"
       id="path1215" />
  </g>
</svg>
