<?xml version="1.0" encoding="UTF-8" standalone="no"?>
<!-- Created with Inkscape (http://www.inkscape.org/) -->

<svg
   width="210mm"
   height="297mm"
   viewBox="0 0 210 297"
   version="1.1"
   id="svg4059"
   sodipodi:docname="top-fork.svg"
   inkscape:version="1.1.2 (1:1.1+202202050852+0a00cf5339)"
   xmlns:inkscape="http://www.inkscape.org/namespaces/inkscape"
   xmlns:sodipodi="http://sodipodi.sourceforge.net/DTD/sodipodi-0.dtd"
   xmlns="http://www.w3.org/2000/svg"
   xmlns:svg="http://www.w3.org/2000/svg">
  <sodipodi:namedview
     id="namedview4061"
     pagecolor="#ffffff"
     bordercolor="#666666"
     borderopacity="1.0"
     inkscape:pageshadow="2"
     inkscape:pageopacity="0.0"
     inkscape:pagecheckerboard="0"
     inkscape:document-units="mm"
     showgrid="false"
     inkscape:zoom="0.1767767"
     inkscape:cx="-393.15137"
     inkscape:cy="707.10678"
     inkscape:window-width="1232"
     inkscape:window-height="703"
     inkscape:window-x="0"
     inkscape:window-y="0"
     inkscape:window-maximized="0"
     inkscape:current-layer="svg4059" />
  <defs
     id="defs4056" />
  <g
     inkscape:label="Layer 1"
     inkscape:groupmode="layer"
     id="layer1" />
  <g
     transform="matrix(0 0 0 -0.333 0 1814.17)"
     fill="#000000"
     stroke="none"
     id="g4501">
    <path
       d="M0 4525 c0 -8 6 -12 14 -9 8 3 36 9 62 14 l49 8 -62 1 c-49 1 -63 -2 -63 -14z"
       id="path4463" />
    <path
       d="M233 4529 c-6 -6 -60 -23 -119 -38 l-109 -27 -3 -37 c-2 -20 0 -37 5 -37 4 0 60 14 123 31 63 17 126 32 140 35 29 6 115 -37 124 -63 4 -9 1 -41 -5 -70 -11 -47 -10 -56 4 -70 27 -28 63 -4 72 47 12 70 23 31 26 -95 l4 -120 -86 -3 -86 -3 -12 43 c-20 69 -57 125 -91 136 -35 13 -114 -5 -180 -38 -39 -20 -40 -22 -40 -71 l0 -50 38 29 c46 37 123 66 150 58 20 -7 62 -92 62 -127 0 -10 -13 -25 -29 -34 -16 -8 -39 -29 -51 -46 -19 -26 -28 -30 -64 -29 -22 1 -55 1 -73 1 l-32 -1 1 -79 0 -79 47 -51 c42 -47 50 -51 91 -51 63 0 106 29 120 79 11 43 37 68 105 101 56 27 120 25 120 -5 0 -16 -10 -22 -58 -31 -63 -13 -84 -28 -128 -88 -37 -51 -37 -87 3 -148 54 -85 38 -182 -25 -159 -30 11 -33 35 -8 60 12 12 21 28 21 36 0 27 -63 104 -93 115 -31 10 -87 5 -119 -11 -27 -14 -41 -75 -36 -158 6 -100 28 -146 91 -185 l48 -30 -23 -17 c-17 -13 -23 -28 -23 -55 0 -34 -3 -39 -32 -46 -43 -11 -50 -47 -24 -126 12 -34 21 -70 21 -80 0 -29 -37 -70 -70 -77 -28 -6 -30 -10 -30 -51 l0 -45 30 16 c37 19 71 19 96 0 25 -19 90 -19 142 -1 47 17 233 24 308 12 l50 -8 32 40 c18 22 48 47 67 56 l35 17 0 89 0 90 -60 0 c-57 0 -63 -2 -105 -41 -42 -39 -48 -42 -102 -40 -52 1 -61 4 -98 40 -26 26 -53 42 -78 46 -45 9 -80 50 -101 118 -13 43 -13 47 2 47 29 0 46 -17 57 -57 9 -32 19 -43 67 -68 31 -16 79 -42 107 -57 86 -47 150 -33 123 28 -9 18 -19 24 -45 24 -20 0 -47 10 -68 26 -19 14 -51 32 -71 41 -46 18 -49 43 -10 71 27 20 27 21 29 149 2 132 -7 181 -38 222 -27 34 -23 65 11 99 22 22 43 32 80 37 64 9 96 35 105 83 5 31 18 48 62 85 45 38 62 47 94 47 39 0 39 0 39 40 0 39 0 39 -37 37 -33 -2 -38 1 -41 21 -7 44 4 54 37 34 16 -9 33 -14 36 -10 3 3 5 27 3 53 l-3 47 -28 -22 c-35 -27 -50 -17 -45 31 3 30 7 35 38 39 33 5 35 7 38 47 l3 42 -31 -10 c-39 -14 -60 -6 -60 25 0 22 5 25 43 28 41 3 42 4 45 41 3 35 2 37 -28 37 -20 0 -39 -9 -54 -25 -21 -23 -25 -24 -37 -9 -20 24 0 46 64 69 80 28 75 45 -13 45 -48 0 -79 -5 -95 -16 -23 -15 -27 -15 -50 0 -15 10 -46 16 -80 16 l-55 0 37 -34 c21 -18 52 -41 70 -50 27 -14 53 -42 53 -59 0 -3 -15 -7 -32 -9 -18 -3 -39 -7 -47 -9 -9 -2 -17 5 -20 21 -10 42 -23 57 -93 99 -68 41 -122 53 -145 30z m375 -368 l-3 -155 -41 -29 c-37 -26 -45 -28 -79 -18 -51 14 -127 -3 -188 -41 -26 -17 -54 -28 -62 -24 -29 11 -15 41 36 74 49 32 55 33 150 33 145 0 144 -1 144 181 0 150 7 186 32 152 10 -14 13 -54 11 -173z m-443 -307 c32 -21 34 -68 5 -84 -27 -14 -52 0 -79 44 -12 19 -28 37 -37 40 -8 3 -12 11 -8 17 9 15 87 4 119 -17z m29 -296 c8 -14 5 -23 -17 -46 -35 -37 -34 -61 6 -99 44 -42 74 -56 107 -49 47 9 68 -44 25 -61 -22 -8 -161 61 -179 89 -21 32 -31 139 -16 167 14 26 57 26 74 -1z m-2 -480 c20 -37 30 -45 73 -55 36 -9 60 -23 87 -52 42 -46 76 -55 174 -49 61 4 67 7 106 47 31 31 48 41 67 39 42 -5 34 -39 -16 -63 -23 -11 -51 -32 -62 -46 l-21 -27 -129 6 c-116 4 -139 2 -211 -19 -74 -21 -82 -22 -97 -7 -18 19 -12 45 13 55 10 3 40 2 68 -4 62 -13 86 -3 86 36 0 35 -13 41 -90 41 -62 0 -71 5 -88 59 -12 34 -7 81 8 81 5 0 19 -19 32 -42z"
       id="path4465" />
    <path
       d="M200 4390 c-41 -11 -103 -27 -138 -36 l-62 -16 0 -40 c0 -34 3 -39 18 -33 9 4 67 19 127 35 118 30 135 28 135 -17 0 -50 57 -130 113 -160 25 -13 31 -13 53 2 35 22 31 53 -9 70 -18 7 -40 22 -49 32 -19 22 -48 104 -48 138 0 24 -25 46 -52 44 -7 0 -47 -9 -88 -19z"
       id="path4467" />
    <path
       d="M114 4114 c-23 -28 -38 -37 -72 -41 -41 -6 -42 -6 -42 -45 l0 -39 38 6 c20 4 49 9 64 11 26 5 108 83 108 103 0 16 -30 41 -49 41 -10 0 -31 -16 -47 -36z"
       id="path4469" />
    <path
       d="M695 3926 c-40 -18 -70 -53 -84 -98 -16 -48 -63 -98 -93 -98 -43 0 -98 -21 -109 -41 -8 -16 -5 -30 17 -72 25 -48 28 -62 29 -177 2 -88 -2 -133 -11 -152 -27 -53 -19 -77 32 -98 26 -11 60 -30 77 -42 24 -18 49 -23 119 -26 l88 -4 0 41 c0 40 -1 40 -30 35 -16 -4 -36 -4 -45 0 -13 5 -13 8 5 26 28 28 25 53 -9 78 -39 28 -48 87 -32 204 10 80 10 91 -10 143 -22 59 -20 85 6 85 21 0 53 -34 61 -64 4 -17 -1 -35 -16 -56 -19 -26 -20 -35 -11 -62 6 -17 11 -61 11 -97 0 -82 14 -133 45 -168 l24 -28 0 242 0 242 -41 34 c-35 29 -39 36 -29 54 6 12 24 26 41 31 26 9 30 16 30 46 0 40 -13 45 -65 22z m-128 -296 c9 -18 11 -60 6 -156 -3 -72 -3 -143 1 -158 4 -15 25 -47 48 -72 39 -43 40 -44 16 -44 -14 0 -46 11 -70 25 l-45 25 4 165 c3 140 1 168 -13 190 -9 14 -13 32 -10 41 9 23 48 13 63 -16z"
       id="path4471" />
    <path
       d="M1 3653 l1 -68 14 34 c15 34 11 85 -7 96 -5 4 -9 -23 -8 -62z"
       id="path4473" />
    <path
       d="M2 3258 l1 -136 23 10 c28 13 74 80 74 108 0 11 -16 37 -36 57 -20 20 -42 50 -49 67 -12 28 -14 17 -13 -106z"
       id="path4475" />
    <path
       d="M0 2985 c0 -47 4 -85 8 -85 5 0 17 9 27 20 14 15 16 29 12 65 -7 50 -22 85 -37 85 -6 0 -10 -37 -10 -85z"
       id="path4477" />
    <path
       d="M674 2781 l-67 -70 -35 27 c-38 29 -52 30 -192 18 -41 -4 -98 -14 -127 -23 -45 -14 -59 -15 -106 -3 -33 7 -73 10 -101 6 -46 -7 -46 -7 -46 -47 0 -42 8 -47 55 -29 21 8 41 6 81 -7 49 -15 57 -15 111 0 54 15 162 29 243 31 32 1 36 -3 66 -59 27 -50 30 -64 21 -88 -7 -20 -6 -40 2 -67 22 -75 8 -131 -25 -98 -10 10 -18 51 -23 120 -11 129 -33 178 -82 178 -21 0 -27 -45 -11 -80 8 -19 19 -73 23 -120 4 -47 10 -94 14 -105 5 -16 -11 -37 -74 -101 -61 -60 -81 -87 -81 -107 0 -33 -14 -35 -34 -5 -24 34 -19 55 21 90 21 18 55 50 76 70 l38 37 -6 98 c-4 54 -11 112 -16 129 -16 53 -94 72 -142 34 -28 -22 -53 -25 -90 -11 -13 5 -57 13 -96 17 l-71 7 0 -40 0 -39 48 -2 c89 -4 141 -21 157 -53 20 -37 19 -68 -2 -76 -16 -6 -22 -1 -64 59 -12 17 -29 23 -77 28 l-62 6 0 -98 0 -97 42 -41 c25 -22 68 -49 100 -61 49 -18 58 -26 64 -53 9 -42 39 -83 75 -101 16 -9 44 -29 64 -46 44 -39 79 -37 83 6 3 26 -4 35 -44 64 l-48 33 30 13 c16 6 36 25 44 40 20 37 136 135 160 135 22 0 153 -109 170 -141 9 -15 6 -33 -14 -83 -38 -94 -49 -161 -43 -246 3 -42 9 -83 12 -93 7 -17 39 -32 53 -23 4 2 9 125 10 273 l2 269 -45 34 c-25 18 -46 39 -46 44 -2 11 -7 87 -11 166 l-3 45 53 -1 52 -2 0 39 0 39 -42 0 c-49 0 -93 19 -93 39 0 21 81 26 110 7 l23 -15 0 99 c0 55 -3 100 -8 100 -5 0 -39 -31 -76 -69z m-340 -247 c3 -9 6 -49 6 -89 l0 -73 -57 -51 c-62 -55 -85 -61 -135 -35 -40 21 -128 103 -128 120 0 38 63 26 85 -16 37 -72 91 -89 144 -45 43 37 55 82 37 136 -11 31 -12 47 -4 56 15 18 45 16 52 -3z"
       id="path4479" />
    <path
       d="M710 2500 c-14 -14 -19 -27 -14 -38 4 -9 10 -39 14 -65 4 -29 15 -57 29 -70 l22 -22 -3 104 c-3 113 -11 128 -48 91z"
       id="path4481" />
    <path
       d="M1 2110 l0 -145 23 60 c25 63 43 82 70 72 24 -9 20 -40 -9 -67 -43 -40 -58 -148 -33 -231 10 -35 9 -42 -9 -62 -42 -45 -43 -56 -42 -354 1 -259 2 -284 15 -253 32 79 37 85 78 86 51 2 66 23 66 94 0 34 7 67 18 86 24 44 87 114 101 114 7 0 29 -12 48 -27 31 -24 48 -29 114 -32 68 -3 80 0 98 18 48 48 12 82 -65 61 -56 -16 -81 -9 -136 40 -26 22 -54 40 -65 40 -19 0 -149 -144 -170 -189 -7 -14 -12 -46 -13 -71 0 -51 -11 -75 -31 -68 -11 4 -14 29 -14 101 -1 81 2 96 15 95 38 -3 51 4 69 40 11 20 45 62 75 92 74 72 75 98 9 140 -26 16 -54 32 -64 35 -56 18 -46 205 11 205 30 0 35 -25 11 -56 -42 -53 -18 -101 77 -157 l57 -34 -3 -46 c-2 -39 1 -48 23 -64 14 -10 45 -33 68 -50 48 -38 72 -41 87 -14 18 35 11 49 -42 78 -62 33 -77 68 -34 79 33 8 41 2 73 -54 14 -26 36 -58 49 -72 30 -33 63 -111 80 -189 12 -58 12 -68 -6 -119 -35 -98 -21 -148 42 -158 48 -8 49 -27 3 -56 -19 -13 -42 -37 -50 -55 -21 -43 -19 -133 5 -200 22 -63 19 -93 -10 -93 -35 0 -51 61 -55 206 -3 99 -1 105 33 123 32 17 30 64 -3 79 -41 19 -50 52 -31 108 9 26 16 56 16 67 0 10 10 33 22 49 16 23 19 35 11 47 -14 22 -57 26 -73 7 -19 -24 -120 -22 -151 3 -60 47 -107 31 -141 -47 -16 -36 -19 -58 -15 -103 8 -69 0 -78 -81 -94 -61 -12 -84 -34 -66 -62 6 -10 26 -21 45 -24 21 -5 49 -24 76 -53 42 -44 43 -46 43 -115 0 -100 9 -107 144 -116 l106 -7 10 -42 c22 -90 53 -115 125 -102 83 16 105 84 65 199 -11 31 -20 68 -20 82 0 29 26 85 39 85 5 0 23 13 40 29 l31 29 0 297 c0 260 -2 296 -15 285 -21 -17 -67 36 -101 117 -27 62 -27 63 -10 121 9 32 16 70 16 85 0 14 9 49 20 77 27 68 25 83 -10 123 -62 72 -118 70 -185 -4 -39 -44 -41 -54 -20 -106 21 -51 19 -68 -16 -108 -34 -38 -68 -45 -90 -19 -8 9 -31 28 -52 41 -58 37 -117 93 -117 113 0 34 -39 70 -76 70 -34 0 -54 14 -86 60 -16 24 -17 19 -17 -120z m593 34 c19 -18 19 -24 5 -61 -6 -15 -17 -63 -25 -106 -14 -87 -25 -107 -60 -107 -13 0 -38 -15 -58 -35 -45 -44 -78 -45 -150 -5 -63 36 -80 54 -72 75 9 24 31 18 76 -20 46 -39 75 -43 123 -19 87 44 112 91 103 195 -6 68 -5 79 11 88 24 14 29 14 47 -5z m-33 -364 c4 -8 20 -42 35 -74 16 -32 43 -71 61 -85 27 -21 33 -33 33 -66 0 -22 9 -60 20 -84 26 -57 29 -261 4 -281 -13 -11 -19 -10 -36 8 -21 21 -22 22 -5 75 22 70 21 104 -3 196 -22 78 -31 98 -112 220 -47 70 -55 91 -41 105 11 10 35 3 44 -14z m-404 -86 c3 -10 -7 -29 -29 -52 -19 -20 -50 -58 -68 -84 -18 -26 -37 -45 -41 -42 -19 11 -8 61 17 85 14 13 37 43 51 67 26 44 58 56 70 26z m176 -424 c0 -47 -4 -109 -8 -138 -4 -29 -2 -73 3 -100 6 -26 13 -71 17 -99 5 -48 4 -53 -13 -53 -30 0 -39 20 -44 94 -4 65 -6 71 -41 101 -46 40 -47 55 -3 55 47 0 63 22 48 64 -13 35 -16 148 -5 160 4 4 16 6 27 4 18 -3 20 -10 19 -88z m133 23 c-18 -112 -18 -130 -1 -163 16 -31 16 -35 0 -70 -14 -31 -15 -46 -6 -94 14 -79 -5 -114 -48 -87 -10 7 -11 13 -1 31 9 17 10 40 2 94 -12 80 -11 294 1 314 5 6 20 12 34 12 24 0 25 -2 19 -37z"
       id="path4483" />
    <path
       d="M3 1755 c0 -22 2 -30 4 -17 2 12 2 30 0 40 -3 9 -5 -1 -4 -23z"
       id="path4485" />
    <path
       d="M22 1044 c-21 -15 -22 -20 -22 -199 l0 -184 26 -20 c14 -11 42 -23 61 -27 44 -8 52 -28 22 -60 -18 -19 -24 -40 -29 -102 -5 -67 -10 -83 -39 -122 -31 -42 -33 -49 -27 -102 3 -35 2 -58 -5 -60 -6 -2 -9 -23 -7 -48 l3 -45 20 22 c22 26 62 30 91 8 19 -15 19 -15 0 -30 -11 -8 -34 -15 -52 -15 -48 0 -64 -9 -64 -36 0 -23 2 -24 79 -24 89 0 102 7 132 74 24 54 11 81 -47 95 -77 20 -106 69 -64 111 38 38 60 96 60 159 0 49 4 65 25 89 13 16 29 41 35 56 9 24 6 31 -18 56 -16 16 -49 34 -73 40 -70 19 -82 35 -74 99 6 45 3 63 -15 102 -24 50 -22 75 6 86 11 4 24 -2 36 -16 14 -18 18 -40 18 -106 0 -65 4 -87 18 -103 19 -22 72 -42 112 -42 36 0 40 -6 27 -40 -10 -26 -7 -34 21 -74 49 -68 63 -108 56 -160 -7 -48 15 -105 56 -146 39 -39 19 -75 -63 -115 -52 -26 -75 -58 -83 -117 l-7 -48 36 0 c32 0 35 3 41 34 7 36 22 51 78 80 59 29 80 59 86 116 4 46 1 56 -32 104 -32 47 -36 59 -36 117 0 50 -6 73 -25 104 -32 53 -75 133 -75 140 0 3 11 5 23 5 29 0 50 -23 66 -70 6 -19 21 -45 33 -58 19 -19 23 -36 24 -98 2 -68 6 -82 38 -134 43 -69 46 -109 11 -165 -31 -50 -31 -76 -2 -103 48 -45 126 -43 177 3 14 12 29 16 50 12 29 -6 30 -5 30 31 0 26 -6 41 -20 50 -27 17 -27 94 0 145 17 32 20 56 20 171 0 131 0 134 -25 150 -34 22 -60 20 -90 -8 -25 -23 -47 -26 -148 -17 -4 1 -17 22 -28 49 -46 108 -39 103 -171 112 -54 3 -102 10 -109 17 -6 6 -12 44 -13 84 -3 83 -20 123 -66 163 -36 30 -56 32 -88 10z m700 -553 c-2 -51 -10 -78 -36 -125 -39 -71 -49 -116 -37 -170 8 -34 7 -41 -14 -62 -49 -49 -79 -20 -46 42 12 21 21 51 21 65 0 37 -23 97 -54 143 -20 30 -26 51 -26 93 0 53 0 54 28 51 l27 -3 -2 -81 c-2 -76 -1 -82 19 -87 27 -7 54 7 60 31 3 10 4 50 3 88 -1 38 0 73 3 77 2 5 16 7 30 5 26 -3 27 -4 24 -67z"
       id="path4487" />
    <path
       d="M726 989 c-31 -37 -33 -67 -5 -121 17 -34 20 -51 15 -102 -5 -47 -3 -66 8 -81 14 -18 15 -3 16 158 0 97 -2 177 -4 177 -2 0 -16 -14 -30 -31z"
       id="path4489" />
    <path
       d="M0 477 c1 -114 3 -129 14 -107 7 14 18 61 25 106 11 67 11 85 0 102 -33 52 -39 36 -39 -101z"
       id="path4491" />
    <path
       d="M215 528 c-2 -7 -6 -57 -8 -111 -4 -78 -2 -100 10 -112 17 -17 32 -19 52 -6 18 11 24 208 8 229 -5 6 -20 12 -34 12 -13 0 -25 -6 -28 -12z"
       id="path4493" />
    <path
       d="M124 285 c-27 -70 96 -120 193 -80 42 18 53 30 53 63 0 33 -26 38 -79 12 l-48 -22 -41 21 c-49 25 -71 26 -78 6z"
       id="path4495" />
    <path
       d="M364 75 c-11 -27 5 -64 29 -70 13 -4 46 -5 75 -3 l52 3 -52 42 c-54 44 -94 55 -104 28z"
       id="path4497" />
    <path
       d="M691 29 c-30 -10 -56 -21 -59 -24 -3 -3 25 -5 61 -5 65 0 67 1 67 25 0 29 1 29 -69 4z"
       id="path4499" />
  </g>
  <g
     transform="matrix(0.10512484,0,0,-0.10571388,0,480.00001)"
     fill="#000000"
     stroke="none"
     id="g4755">
    <path
       d="m 0,4525 c 0,-8 6,-12 14,-9 8,3 36,9 62,14 l 49,8 -62,1 c -49,1 -63,-2 -63,-14 z"
       id="path4717" />
    <path
       d="m 233,4529 c -6,-6 -60,-23 -119,-38 L 5,4464 2,4427 c -2,-20 0,-37 5,-37 4,0 60,14 123,31 63,17 126,32 140,35 29,6 115,-37 124,-63 4,-9 1,-41 -5,-70 -11,-47 -10,-56 4,-70 27,-28 63,-4 72,47 12,70 23,31 26,-95 l 4,-120 -86,-3 -86,-3 -12,43 c -20,69 -57,125 -91,136 -35,13 -114,-5 -180,-38 C 1,4200 0,4198 0,4149 v -50 l 38,29 c 46,37 123,66 150,58 20,-7 62,-92 62,-127 0,-10 -13,-25 -29,-34 -16,-8 -39,-29 -51,-46 -19,-26 -28,-30 -64,-29 -22,1 -55,1 -73,1 l -32,-1 1,-79 v -79 l 47,-51 c 42,-47 50,-51 91,-51 63,0 106,29 120,79 11,43 37,68 105,101 56,27 120,25 120,-5 0,-16 -10,-22 -58,-31 -63,-13 -84,-28 -128,-88 -37,-51 -37,-87 3,-148 54,-85 38,-182 -25,-159 -30,11 -33,35 -8,60 12,12 21,28 21,36 0,27 -63,104 -93,115 -31,10 -87,5 -119,-11 -27,-14 -41,-75 -36,-158 6,-100 28,-146 91,-185 l 48,-30 -23,-17 c -17,-13 -23,-28 -23,-55 0,-34 -3,-39 -32,-46 -43,-11 -50,-47 -24,-126 12,-34 21,-70 21,-80 0,-29 -37,-70 -70,-77 -28,-6 -30,-10 -30,-51 v -45 l 30,16 c 37,19 71,19 96,0 25,-19 90,-19 142,-1 47,17 233,24 308,12 l 50,-8 32,40 c 18,22 48,47 67,56 l 35,17 v 89 90 h -60 c -57,0 -63,-2 -105,-41 -42,-39 -48,-42 -102,-40 -52,1 -61,4 -98,40 -26,26 -53,42 -78,46 -45,9 -80,50 -101,118 -13,43 -13,47 2,47 29,0 46,-17 57,-57 9,-32 19,-43 67,-68 31,-16 79,-42 107,-57 86,-47 150,-33 123,28 -9,18 -19,24 -45,24 -20,0 -47,10 -68,26 -19,14 -51,32 -71,41 -46,18 -49,43 -10,71 27,20 27,21 29,149 2,132 -7,181 -38,222 -27,34 -23,65 11,99 22,22 43,32 80,37 64,9 96,35 105,83 5,31 18,48 62,85 45,38 62,47 94,47 39,0 39,0 39,40 0,39 0,39 -37,37 -33,-2 -38,1 -41,21 -7,44 4,54 37,34 16,-9 33,-14 36,-10 3,3 5,27 3,53 l -3,47 -28,-22 c -35,-27 -50,-17 -45,31 3,30 7,35 38,39 33,5 35,7 38,47 l 3,42 -31,-10 c -39,-14 -60,-6 -60,25 0,22 5,25 43,28 41,3 42,4 45,41 3,35 2,37 -28,37 -20,0 -39,-9 -54,-25 -21,-23 -25,-24 -37,-9 -20,24 0,46 64,69 80,28 75,45 -13,45 -48,0 -79,-5 -95,-16 -23,-15 -27,-15 -50,0 -15,10 -46,16 -80,16 h -55 l 37,-34 c 21,-18 52,-41 70,-50 27,-14 53,-42 53,-59 0,-3 -15,-7 -32,-9 -18,-3 -39,-7 -47,-9 -9,-2 -17,5 -20,21 -10,42 -23,57 -93,99 -68,41 -122,53 -145,30 z m 375,-368 -3,-155 -41,-29 c -37,-26 -45,-28 -79,-18 -51,14 -127,-3 -188,-41 -26,-17 -54,-28 -62,-24 -29,11 -15,41 36,74 49,32 55,33 150,33 145,0 144,-1 144,181 0,150 7,186 32,152 10,-14 13,-54 11,-173 z M 165,3854 c 32,-21 34,-68 5,-84 -27,-14 -52,0 -79,44 -12,19 -28,37 -37,40 -8,3 -12,11 -8,17 9,15 87,4 119,-17 z m 29,-296 c 8,-14 5,-23 -17,-46 -35,-37 -34,-61 6,-99 44,-42 74,-56 107,-49 47,9 68,-44 25,-61 -22,-8 -161,61 -179,89 -21,32 -31,139 -16,167 14,26 57,26 74,-1 z m -2,-480 c 20,-37 30,-45 73,-55 36,-9 60,-23 87,-52 42,-46 76,-55 174,-49 61,4 67,7 106,47 31,31 48,41 67,39 42,-5 34,-39 -16,-63 -23,-11 -51,-32 -62,-46 l -21,-27 -129,6 c -116,4 -139,2 -211,-19 -74,-21 -82,-22 -97,-7 -18,19 -12,45 13,55 10,3 40,2 68,-4 62,-13 86,-3 86,36 0,35 -13,41 -90,41 -62,0 -71,5 -88,59 -12,34 -7,81 8,81 5,0 19,-19 32,-42 z"
       id="path4719" />
    <path
       d="M 200,4390 C 159,4379 97,4363 62,4354 L 0,4338 v -40 c 0,-34 3,-39 18,-33 9,4 67,19 127,35 118,30 135,28 135,-17 0,-50 57,-130 113,-160 25,-13 31,-13 53,2 35,22 31,53 -9,70 -18,7 -40,22 -49,32 -19,22 -48,104 -48,138 0,24 -25,46 -52,44 -7,0 -47,-9 -88,-19 z"
       id="path4721" />
    <path
       d="M 114,4114 C 91,4086 76,4077 42,4073 1,4067 0,4067 0,4028 v -39 l 38,6 c 20,4 49,9 64,11 26,5 108,83 108,103 0,16 -30,41 -49,41 -10,0 -31,-16 -47,-36 z"
       id="path4723" />
    <path
       d="m 695,3926 c -40,-18 -70,-53 -84,-98 -16,-48 -63,-98 -93,-98 -43,0 -98,-21 -109,-41 -8,-16 -5,-30 17,-72 25,-48 28,-62 29,-177 2,-88 -2,-133 -11,-152 -27,-53 -19,-77 32,-98 26,-11 60,-30 77,-42 24,-18 49,-23 119,-26 l 88,-4 v 41 c 0,40 -1,40 -30,35 -16,-4 -36,-4 -45,0 -13,5 -13,8 5,26 28,28 25,53 -9,78 -39,28 -48,87 -32,204 10,80 10,91 -10,143 -22,59 -20,85 6,85 21,0 53,-34 61,-64 4,-17 -1,-35 -16,-56 -19,-26 -20,-35 -11,-62 6,-17 11,-61 11,-97 0,-82 14,-133 45,-168 l 24,-28 v 242 242 l -41,34 c -35,29 -39,36 -29,54 6,12 24,26 41,31 26,9 30,16 30,46 0,40 -13,45 -65,22 z M 567,3630 c 9,-18 11,-60 6,-156 -3,-72 -3,-143 1,-158 4,-15 25,-47 48,-72 39,-43 40,-44 16,-44 -14,0 -46,11 -70,25 l -45,25 4,165 c 3,140 1,168 -13,190 -9,14 -13,32 -10,41 9,23 48,13 63,-16 z"
       id="path4725" />
    <path
       d="m 1,3653 1,-68 14,34 c 15,34 11,85 -7,96 -5,4 -9,-23 -8,-62 z"
       id="path4727" />
    <path
       d="m 2,3258 1,-136 23,10 c 28,13 74,80 74,108 0,11 -16,37 -36,57 -20,20 -42,50 -49,67 -12,28 -14,17 -13,-106 z"
       id="path4729" />
    <path
       d="m 0,2985 c 0,-47 4,-85 8,-85 5,0 17,9 27,20 14,15 16,29 12,65 -7,50 -22,85 -37,85 -6,0 -10,-37 -10,-85 z"
       id="path4731" />
    <path
       d="m 674,2781 -67,-70 -35,27 c -38,29 -52,30 -192,18 -41,-4 -98,-14 -127,-23 -45,-14 -59,-15 -106,-3 -33,7 -73,10 -101,6 -46,-7 -46,-7 -46,-47 0,-42 8,-47 55,-29 21,8 41,6 81,-7 49,-15 57,-15 111,0 54,15 162,29 243,31 32,1 36,-3 66,-59 27,-50 30,-64 21,-88 -7,-20 -6,-40 2,-67 22,-75 8,-131 -25,-98 -10,10 -18,51 -23,120 -11,129 -33,178 -82,178 -21,0 -27,-45 -11,-80 8,-19 19,-73 23,-120 4,-47 10,-94 14,-105 5,-16 -11,-37 -74,-101 -61,-60 -81,-87 -81,-107 0,-33 -14,-35 -34,-5 -24,34 -19,55 21,90 21,18 55,50 76,70 l 38,37 -6,98 c -4,54 -11,112 -16,129 -16,53 -94,72 -142,34 -28,-22 -53,-25 -90,-11 -13,5 -57,13 -96,17 l -71,7 v -40 -39 l 48,-2 c 89,-4 141,-21 157,-53 20,-37 19,-68 -2,-76 -16,-6 -22,-1 -64,59 -12,17 -29,23 -77,28 l -62,6 v -98 -97 l 42,-41 c 25,-22 68,-49 100,-61 49,-18 58,-26 64,-53 9,-42 39,-83 75,-101 16,-9 44,-29 64,-46 44,-39 79,-37 83,6 3,26 -4,35 -44,64 l -48,33 30,13 c 16,6 36,25 44,40 20,37 136,135 160,135 22,0 153,-109 170,-141 9,-15 6,-33 -14,-83 -38,-94 -49,-161 -43,-246 3,-42 9,-83 12,-93 7,-17 39,-32 53,-23 4,2 9,125 10,273 l 2,269 -45,34 c -25,18 -46,39 -46,44 -2,11 -7,87 -11,166 l -3,45 53,-1 52,-2 v 39 39 h -42 c -49,0 -93,19 -93,39 0,21 81,26 110,7 l 23,-15 v 99 c 0,55 -3,100 -8,100 -5,0 -39,-31 -76,-69 z M 334,2534 c 3,-9 6,-49 6,-89 v -73 l -57,-51 c -62,-55 -85,-61 -135,-35 -40,21 -128,103 -128,120 0,38 63,26 85,-16 37,-72 91,-89 144,-45 43,37 55,82 37,136 -11,31 -12,47 -4,56 15,18 45,16 52,-3 z"
       id="path4733" />
    <path
       d="m 710,2500 c -14,-14 -19,-27 -14,-38 4,-9 10,-39 14,-65 4,-29 15,-57 29,-70 l 22,-22 -3,104 c -3,113 -11,128 -48,91 z"
       id="path4735" />
    <path
       d="m 1,2110 v -145 l 23,60 c 25,63 43,82 70,72 24,-9 20,-40 -9,-67 -43,-40 -58,-148 -33,-231 10,-35 9,-42 -9,-62 -42,-45 -43,-56 -42,-354 1,-259 2,-284 15,-253 32,79 37,85 78,86 51,2 66,23 66,94 0,34 7,67 18,86 24,44 87,114 101,114 7,0 29,-12 48,-27 31,-24 48,-29 114,-32 68,-3 80,0 98,18 48,48 12,82 -65,61 -56,-16 -81,-9 -136,40 -26,22 -54,40 -65,40 -19,0 -149,-144 -170,-189 -7,-14 -12,-46 -13,-71 0,-51 -11,-75 -31,-68 -11,4 -14,29 -14,101 -1,81 2,96 15,95 38,-3 51,4 69,40 11,20 45,62 75,92 74,72 75,98 9,140 -26,16 -54,32 -64,35 -56,18 -46,205 11,205 30,0 35,-25 11,-56 -42,-53 -18,-101 77,-157 l 57,-34 -3,-46 c -2,-39 1,-48 23,-64 14,-10 45,-33 68,-50 48,-38 72,-41 87,-14 18,35 11,49 -42,78 -62,33 -77,68 -34,79 33,8 41,2 73,-54 14,-26 36,-58 49,-72 30,-33 63,-111 80,-189 12,-58 12,-68 -6,-119 -35,-98 -21,-148 42,-158 48,-8 49,-27 3,-56 -19,-13 -42,-37 -50,-55 -21,-43 -19,-133 5,-200 22,-63 19,-93 -10,-93 -35,0 -51,61 -55,206 -3,99 -1,105 33,123 32,17 30,64 -3,79 -41,19 -50,52 -31,108 9,26 16,56 16,67 0,10 10,33 22,49 16,23 19,35 11,47 -14,22 -57,26 -73,7 -19,-24 -120,-22 -151,3 -60,47 -107,31 -141,-47 -16,-36 -19,-58 -15,-103 8,-69 0,-78 -81,-94 -61,-12 -84,-34 -66,-62 6,-10 26,-21 45,-24 21,-5 49,-24 76,-53 42,-44 43,-46 43,-115 0,-100 9,-107 144,-116 l 106,-7 10,-42 c 22,-90 53,-115 125,-102 83,16 105,84 65,199 -11,31 -20,68 -20,82 0,29 26,85 39,85 5,0 23,13 40,29 l 31,29 v 297 c 0,260 -2,296 -15,285 -21,-17 -67,36 -101,117 -27,62 -27,63 -10,121 9,32 16,70 16,85 0,14 9,49 20,77 27,68 25,83 -10,123 -62,72 -118,70 -185,-4 -39,-44 -41,-54 -20,-106 21,-51 19,-68 -16,-108 -34,-38 -68,-45 -90,-19 -8,9 -31,28 -52,41 -58,37 -117,93 -117,113 0,34 -39,70 -76,70 -34,0 -54,14 -86,60 -16,24 -17,19 -17,-120 z m 593,34 c 19,-18 19,-24 5,-61 -6,-15 -17,-63 -25,-106 -14,-87 -25,-107 -60,-107 -13,0 -38,-15 -58,-35 -45,-44 -78,-45 -150,-5 -63,36 -80,54 -72,75 9,24 31,18 76,-20 46,-39 75,-43 123,-19 87,44 112,91 103,195 -6,68 -5,79 11,88 24,14 29,14 47,-5 z m -33,-364 c 4,-8 20,-42 35,-74 16,-32 43,-71 61,-85 27,-21 33,-33 33,-66 0,-22 9,-60 20,-84 26,-57 29,-261 4,-281 -13,-11 -19,-10 -36,8 -21,21 -22,22 -5,75 22,70 21,104 -3,196 -22,78 -31,98 -112,220 -47,70 -55,91 -41,105 11,10 35,3 44,-14 z m -404,-86 c 3,-10 -7,-29 -29,-52 -19,-20 -50,-58 -68,-84 -18,-26 -37,-45 -41,-42 -19,11 -8,61 17,85 14,13 37,43 51,67 26,44 58,56 70,26 z m 176,-424 c 0,-47 -4,-109 -8,-138 -4,-29 -2,-73 3,-100 6,-26 13,-71 17,-99 5,-48 4,-53 -13,-53 -30,0 -39,20 -44,94 -4,65 -6,71 -41,101 -46,40 -47,55 -3,55 47,0 63,22 48,64 -13,35 -16,148 -5,160 4,4 16,6 27,4 18,-3 20,-10 19,-88 z m 133,23 c -18,-112 -18,-130 -1,-163 16,-31 16,-35 0,-70 -14,-31 -15,-46 -6,-94 14,-79 -5,-114 -48,-87 -10,7 -11,13 -1,31 9,17 10,40 2,94 -12,80 -11,294 1,314 5,6 20,12 34,12 24,0 25,-2 19,-37 z"
       id="path4737" />
    <path
       d="m 3,1755 c 0,-22 2,-30 4,-17 2,12 2,30 0,40 -3,9 -5,-1 -4,-23 z"
       id="path4739" />
    <path
       d="M 22,1044 C 1,1029 0,1024 0,845 V 661 l 26,-20 c 14,-11 42,-23 61,-27 44,-8 52,-28 22,-60 C 91,535 85,514 80,452 75,385 70,369 41,330 10,288 8,281 14,228 17,193 16,170 9,168 3,166 0,145 2,120 L 5,75 25,97 c 22,26 62,30 91,8 19,-15 19,-15 0,-30 C 105,67 82,60 64,60 16,60 0,51 0,24 0,1 2,0 79,0 c 89,0 102,7 132,74 24,54 11,81 -47,95 -77,20 -106,69 -64,111 38,38 60,96 60,159 0,49 4,65 25,89 13,16 29,41 35,56 9,24 6,31 -18,56 -16,16 -49,34 -73,40 -70,19 -82,35 -74,99 6,45 3,63 -15,102 -24,50 -22,75 6,86 11,4 24,-2 36,-16 14,-18 18,-40 18,-106 0,-65 4,-87 18,-103 19,-22 72,-42 112,-42 36,0 40,-6 27,-40 -10,-26 -7,-34 21,-74 49,-68 63,-108 56,-160 -7,-48 15,-105 56,-146 39,-39 19,-75 -63,-115 C 275,139 252,107 244,48 L 237,0 h 36 c 32,0 35,3 41,34 7,36 22,51 78,80 59,29 80,59 86,116 4,46 1,56 -32,104 -32,47 -36,59 -36,117 0,50 -6,73 -25,104 -32,53 -75,133 -75,140 0,3 11,5 23,5 29,0 50,-23 66,-70 6,-19 21,-45 33,-58 19,-19 23,-36 24,-98 2,-68 6,-82 38,-134 43,-69 46,-109 11,-165 -31,-50 -31,-76 -2,-103 48,-45 126,-43 177,3 14,12 29,16 50,12 29,-6 30,-5 30,31 0,26 -6,41 -20,50 -27,17 -27,94 0,145 17,32 20,56 20,171 0,131 0,134 -25,150 -34,22 -60,20 -90,-8 -25,-23 -47,-26 -148,-17 -4,1 -17,22 -28,49 -46,108 -39,103 -171,112 -54,3 -102,10 -109,17 -6,6 -12,44 -13,84 -3,83 -20,123 -66,163 -36,30 -56,32 -88,10 z M 722,491 c -2,-51 -10,-78 -36,-125 -39,-71 -49,-116 -37,-170 8,-34 7,-41 -14,-62 -49,-49 -79,-20 -46,42 12,21 21,51 21,65 0,37 -23,97 -54,143 -20,30 -26,51 -26,93 0,53 0,54 28,51 l 27,-3 -2,-81 c -2,-76 -1,-82 19,-87 27,-7 54,7 60,31 3,10 4,50 3,88 -1,38 0,73 3,77 2,5 16,7 30,5 26,-3 27,-4 24,-67 z"
       id="path4741" />
    <path
       d="m 726,989 c -31,-37 -33,-67 -5,-121 17,-34 20,-51 15,-102 -5,-47 -3,-66 8,-81 14,-18 15,-3 16,158 0,97 -2,177 -4,177 -2,0 -16,-14 -30,-31 z"
       id="path4743" />
    <path
       d="M 0,477 C 1,363 3,348 14,370 c 7,14 18,61 25,106 11,67 11,85 0,102 C 6,630 0,614 0,477 Z"
       id="path4745" />
    <path
       d="m 215,528 c -2,-7 -6,-57 -8,-111 -4,-78 -2,-100 10,-112 17,-17 32,-19 52,-6 18,11 24,208 8,229 -5,6 -20,12 -34,12 -13,0 -25,-6 -28,-12 z"
       id="path4747" />
    <path
       d="m 124,285 c -27,-70 96,-120 193,-80 42,18 53,30 53,63 0,33 -26,38 -79,12 l -48,-22 -41,21 c -49,25 -71,26 -78,6 z"
       id="path4749" />
    <path
       d="M 364,75 C 353,48 369,11 393,5 406,1 439,0 468,2 l 52,3 -52,42 c -54,44 -94,55 -104,28 z"
       id="path4751" />
    <path
       d="M 691,29 C 661,19 635,8 632,5 c -3,-3 25,-5 61,-5 65,0 67,1 67,25 0,29 1,29 -69,4 z"
       id="path4753" />
  </g>
</svg>
